<svg width="100" height="86" viewBox="0 0 100 86" fill="none" xmlns="http://www.w3.org/2000/svg">
<path d="M55.1888 36.5007C54.9055 35.8561 54.6796 35.343 54.4614 34.8462C55.0995 34.4469 56.5837 31.3693 57.2549 30.6021C57.3608 30.3531 57.4668 30.1042 57.565 29.8703C60.8282 30.7778 64.1551 31.7017 67.4808 32.6281C67.5765 32.6547 67.6735 32.6812 67.759 32.728C69.6324 33.7467 71.5364 34.7135 73.3613 35.8106C74.2865 36.3667 74.7523 37.3576 75.1237 38.3624C76.2109 41.3148 76.6244 44.3999 77.029 47.4914C77.2178 48.9284 77.5854 50.3465 77.7206 51.7861C77.8648 53.3558 77.8304 54.9407 77.8776 56.5181C77.8993 57.2675 77.8814 58.0233 77.9759 58.7652C78.0448 59.3011 77.9146 59.7094 77.3876 59.7372C75.9417 59.8143 74.4856 59.8686 73.041 59.7928C72.408 59.7587 72.505 59.0951 72.6428 58.6679C72.8444 58.0448 73.1124 57.4344 73.4264 56.858C73.8233 56.1313 74.1193 55.3983 73.9088 54.5679C73.5451 53.1359 74.0479 51.8265 74.4652 50.5032C74.626 49.9939 74.834 49.4947 74.9399 48.9739C74.9795 48.773 74.7931 48.5278 74.7102 48.3028C74.4996 48.4216 74.1602 48.4962 74.0964 48.6681C73.3957 50.5588 72.5075 52.413 72.87 54.5287C72.9351 54.9066 72.8317 55.3123 72.8062 55.7054C72.7168 55.7092 72.6275 55.713 72.5369 55.7168C72.4425 54.8902 72.3365 54.0649 72.2536 53.2383C72.214 52.8263 72.2242 52.4104 72.1962 51.9984C72.0953 50.5045 72.2255 49.0826 73.3064 47.8908C73.8858 47.2513 73.7607 46.4449 73.7543 45.6626C73.7441 44.5529 73.7811 43.4419 73.8284 42.3335C73.8577 41.6295 73.9726 40.9268 73.9738 40.2241C73.9738 40.0307 73.7046 39.8361 73.5578 39.6414C73.3855 39.812 73.0818 39.9675 73.0588 40.1558C72.87 41.7256 72.7232 43.3016 72.5879 44.8777C72.5599 45.2114 72.6951 45.5627 72.6517 45.8913C72.5662 46.5233 72.5982 47.2904 72.2434 47.7429C70.9927 49.3392 70.9481 51.1263 71.1523 52.9665C71.3067 54.3631 71.6104 55.742 71.7916 57.1374C71.8427 57.533 71.678 57.9513 71.6538 58.3621C71.627 58.8171 71.6461 59.2746 71.6461 59.7953H58.2631C58.2631 59.0496 58.2567 58.3974 58.2644 57.7465C58.2886 55.215 58.3677 52.6822 58.3192 50.1531C58.3039 49.295 58.0653 48.4115 57.7692 47.595C57.1069 45.77 56.7738 43.8931 56.5096 41.9809C56.2953 40.4238 55.8703 38.8945 55.5436 37.3753M57.2409 59.6474H53.9012C53.9012 57.586 53.8399 55.5676 53.9165 53.5542C54.0607 49.707 53.5426 45.9141 52.8139 42.1692C52.4719 40.4174 51.5186 38.7807 50.8269 37.0972C50.6789 36.7395 50.4581 36.4109 50.2833 36.0886C51.3361 35.6779 52.3328 35.2899 53.3945 34.8753C54.1704 36.2984 54.6248 37.9225 54.9247 39.5896C55.4798 42.6798 55.9111 45.7953 57.2855 48.682C57.4987 49.1269 57.5625 49.6817 57.5497 50.1822C57.4706 53.3217 57.3494 56.4599 57.2409 59.6474ZM50.0357 37.6432C51.257 39.6427 51.9818 41.6586 52.1962 43.8388C52.4859 46.7912 52.7948 49.7424 53.004 52.6999C53.1419 54.6387 53.1827 56.5888 53.1431 58.5302C53.1176 59.7157 52.9543 59.7852 51.7777 59.837C47.3634 60.0291 42.9479 60.2187 38.5324 60.3893C37.4018 60.4323 36.2672 60.4083 35.1353 60.402C34.9707 60.4007 34.806 60.3287 34.6389 60.2895C34.7384 59.3302 34.8724 58.4012 34.9209 57.4685C34.9822 56.3272 34.9503 55.1821 35.0026 54.0396C35.0243 53.5441 35.12 53.0424 35.2527 52.5621C35.522 51.5826 35.8704 50.622 36.1141 49.6375C36.1664 49.4277 35.9176 49.1446 35.8066 48.8943C35.6088 49.0915 35.3114 49.2545 35.2323 49.4896C35.0192 50.1203 34.9005 50.78 34.7167 51.5396C33.8796 50.5677 33.4814 49.6463 34.0633 48.524C34.4959 47.6886 34.3722 46.7899 34.0021 46.0443C32.5945 43.2068 31.9908 40.104 30.8742 37.1743C30.8232 37.0391 30.7823 36.8697 30.679 36.7876C30.4633 36.6157 30.1659 36.3313 29.9822 36.3819C29.4972 36.5133 29.704 36.8773 29.8418 37.2047C30.1838 38.011 30.5016 38.8275 30.8181 39.6439C30.8768 39.7943 30.8831 39.965 30.7976 40.2051C30.3153 39.6642 29.8252 39.127 29.3492 38.5798C29.0595 38.2474 28.8234 37.8606 28.4955 37.5724C28.3245 37.4208 28.008 37.4271 27.7578 37.3626C27.7591 37.6205 27.6532 37.9655 27.7821 38.121C28.5325 39.0234 29.2969 39.9207 30.1379 40.7397C30.8027 41.3894 31.3936 42.0365 31.5557 42.9831C31.5965 43.2144 31.7216 43.4432 31.8505 43.6479C32.8255 45.2177 33.1496 46.8835 32.8969 48.7275C32.7948 49.4808 32.9301 50.3844 33.2785 51.0581C34.2024 52.8389 34.0557 54.6968 33.974 56.5661C33.9344 57.4634 33.8209 58.3583 33.7213 59.2518C33.6384 60.0026 33.2542 60.3413 32.4337 60.4462C30.1851 60.7344 27.9646 61.2374 25.7134 61.4662C24.6159 61.5786 23.4738 61.2842 22.3584 61.13C22.2219 61.111 22.0368 60.8304 22.0202 60.6573C21.6565 57.1272 21.1448 53.6263 21.9322 50.052C22.4797 47.5672 22.5575 44.9839 22.9046 42.451C23.082 41.1556 23.2721 39.8411 23.6639 38.6C24.3684 36.3755 25.8959 34.8601 28.1828 34.1612C30.0983 33.5748 31.8798 32.7343 33.6371 31.7687C36.2111 30.3531 38.8885 29.1234 41.5263 27.8127C42.1261 29.4191 42.6685 30.8663 43.2083 32.3134C43.4456 32.9492 43.6677 33.5899 43.9255 34.2168C44.3275 35.1989 45.0842 35.8017 46.1319 35.9585C46.8836 36.0722 47.6608 36.1164 48.4201 36.0684C49.0875 36.0267 49.4423 36.2454 49.5776 36.8887M22.7757 37.6622C22.6022 38.2069 22.4414 38.7061 22.2806 39.2054L22.1325 39.2041C22.0802 38.629 22.0292 38.054 21.9666 37.3652C22.2959 37.4852 22.5128 37.5649 22.7757 37.6622ZM22.3661 34.9524C24.1667 35.2494 24.2675 35.4997 23.2122 36.8091C22.8753 36.6978 22.5358 36.5866 22.1159 36.4476C22.1963 35.9724 22.278 35.4832 22.3661 34.9524ZM23.2492 32.5536C23.7405 32.7874 24.131 32.9719 24.5572 33.1741C24.4079 33.638 24.2752 34.0449 24.1272 34.5012C23.6627 34.299 23.2262 34.1094 22.7106 33.8832C22.8778 33.4737 23.045 33.0604 23.2492 32.5536ZM25.1149 30.9901C25.0167 31.3857 24.926 31.7472 24.8188 32.1744C24.4322 32.0164 24.1489 31.9001 23.8069 31.7611C24.2267 31.4603 24.339 30.7816 25.1149 30.9901ZM25.8372 32.0847C25.8793 31.9267 25.9151 31.7662 25.9636 31.5766C26.8109 31.8635 27.3737 32.2957 27.241 33.164C27.2129 33.3473 26.8199 33.6418 26.6527 33.6089C26.0759 33.4926 25.6841 32.6711 25.8372 32.0847ZM26.8964 29.021C27.2703 28.5925 27.5843 27.8999 28.0335 27.8014C28.7188 27.651 29.3722 28.1868 29.6631 28.834C30.0881 29.7743 30.4008 30.7664 30.7045 31.7548C30.7466 31.8963 30.5169 32.23 30.3382 32.3084C29.6912 32.5915 29.0136 32.8025 28.3181 33.0528C28.0194 31.66 27.9633 30.2293 26.8901 29.0804C26.8901 29.0678 26.8824 29.0349 26.8964 29.021ZM30.8244 24.6101C30.9061 24.6695 30.9865 24.7276 31.0669 24.787C30.7708 25.5479 30.4926 26.3163 30.1723 27.0683C29.9949 27.4829 29.6938 27.584 29.2969 27.2781C29.1067 27.1328 28.877 27.0418 28.5312 26.8534C29.3313 26.0686 29.7282 24.9665 30.8244 24.6101ZM31.3655 20.62C31.6348 20.62 31.9156 20.5593 32.1516 20.6339C32.4694 20.7363 32.731 20.9675 32.4669 21.3467C32.07 21.9167 31.6527 22.4728 31.2417 23.034C31.1741 22.9948 31.1039 22.9556 31.035 22.9164C31.1422 22.1745 31.2481 21.4326 31.3655 20.62ZM33.3283 18.1453C33.4252 18.0315 33.6243 18.0025 33.7749 17.9342C33.7775 18.0935 33.8323 18.2742 33.7749 18.4082C33.5478 18.9365 33.2861 19.4521 33.0028 20.0424C32.708 19.8781 32.4809 19.7517 32.1887 19.5899C32.5817 19.0856 32.939 18.6028 33.3283 18.1453ZM33.2913 14.5306C33.6307 14.6443 33.9255 14.7416 34.2088 14.8364C34.1284 16.1168 33.5171 16.7841 32.4949 16.6135C32.768 15.9006 33.0169 15.2497 33.2913 14.5306ZM35.8002 12.5956C35.8372 12.6474 35.8742 12.6992 35.9099 12.751C35.559 13.201 35.2068 13.6509 34.8418 14.1173C34.5674 13.9884 34.3083 13.867 33.8272 13.6421C34.5878 13.2389 35.194 12.9166 35.8002 12.5956ZM36.0682 10.8969C36.2915 11.0865 36.4804 11.2483 36.7777 11.5011C36.2558 11.6072 35.8831 11.6831 35.3331 11.7943C35.6343 11.4265 35.8308 11.1863 36.0682 10.8969ZM38.304 10.3079C38.0475 10.5102 37.7872 10.7162 37.5562 10.8982C37.3214 10.6404 37.1108 10.4103 36.9002 10.179C37.5498 9.48263 37.7795 9.48642 38.304 10.3079ZM40.3203 9.10979C39.8775 9.37394 39.5457 9.5711 39.1577 9.8024C39.0059 9.6166 38.8604 9.43966 38.6256 9.15276C39.2305 9.12369 39.6337 8.30975 40.3203 9.10979ZM40.6572 10.0198C40.7989 10.5102 40.9239 10.9412 41.0567 11.4025C40.291 11.6641 39.7971 11.5554 39.6784 10.6138C39.9732 10.4356 40.282 10.2473 40.6572 10.0198ZM40.5883 15.7768C40.4479 15.5392 40.3318 15.2813 40.1608 15.0677C39.6172 14.3903 39.0467 13.7318 38.4992 13.0556C38.392 12.9229 38.3397 12.746 38.2632 12.5905C38.4201 12.516 38.5758 12.3832 38.7366 12.3769C39.3951 12.3529 40.0549 12.3668 40.841 12.3668V15.7035C40.7568 15.7275 40.6725 15.7515 40.5883 15.7768ZM39.0978 18.6117C39.048 18.024 38.7583 17.4552 38.5758 16.8764C38.6167 16.8473 38.6511 16.8018 38.6868 16.798C40.0396 16.6842 40.111 16.7259 40.3765 18.0442C40.4811 18.5586 40.5207 19.0869 40.5921 19.6253C39.6121 19.7845 39.1705 19.5153 39.0978 18.6117ZM39.3938 23.4877V20.6731C40.4543 20.4038 40.6087 20.5088 40.5526 21.5451C40.5168 22.1935 40.4301 22.8394 40.3586 23.5383C39.9885 23.5193 39.7078 23.5042 39.3938 23.4877ZM39.441 26.9963C39.145 27.5359 38.9408 27.9075 38.7379 28.2791C38.6651 28.2374 38.5924 28.1957 38.5197 28.1527C38.7366 27.7875 38.5618 27.1719 39.441 26.9963ZM39.404 26.1356C39.3262 26.013 39.182 25.8891 39.1845 25.7678C39.196 25.3406 39.2573 24.9134 39.3083 24.399C39.6593 24.4672 39.8686 24.5089 40.1225 24.5582C39.9949 25.0309 39.9043 25.4543 39.7614 25.8588C39.7193 25.9776 39.5266 26.0446 39.404 26.1356ZM37.8037 15.5986C37.5957 15.1524 37.8459 14.4977 37.9033 13.9315C37.9977 13.9189 38.0947 13.905 38.1904 13.8911C38.6039 14.4737 39.0186 15.0551 39.4321 15.6377C39.3772 15.7376 39.3224 15.8374 39.2675 15.9373C38.757 15.8349 37.9326 15.8741 37.8037 15.5986ZM37.3839 19.6291C37.1886 19.6013 36.95 19.4635 36.8453 19.3017C36.4906 18.7621 36.1881 18.1895 35.8155 17.5399C35.9291 17.4325 36.1001 17.2353 36.3081 17.0862C36.8479 16.6969 37.477 16.8321 37.7221 17.4325C37.9926 18.0947 38.1853 18.7873 38.4431 19.5583C37.9594 19.5975 37.6634 19.6683 37.3839 19.6291ZM37.2946 23.3525V20.5947C37.5677 20.5757 37.9479 20.5479 38.401 20.5163V23.3525H37.2946ZM36.2966 26.104C36.5403 25.5706 36.6909 24.9715 37.0534 24.5481C37.2614 24.3055 37.8127 24.351 38.3436 24.2372C38.2466 25.0082 38.1815 25.5302 38.1075 26.104H36.2966ZM35.6266 27.4096C35.6764 27.2971 35.9048 27.2212 36.0618 27.2023C36.6195 27.1366 37.1823 27.1024 37.8778 27.0456C37.6264 27.7306 37.5779 28.5053 37.1618 28.8529C36.525 29.3888 35.6343 29.6315 34.852 29.9993C34.7793 29.9449 34.7078 29.8906 34.6338 29.8362C34.9605 29.0248 35.2744 28.2096 35.6266 27.4096ZM36.2851 20.6579V23.3247H34.5597C34.4959 22.5613 34.4334 21.7992 34.3607 20.9233C34.9196 20.8462 35.5156 20.7641 36.2851 20.6579ZM35.1557 18.2906C35.4811 18.8632 35.7108 19.2689 35.9839 19.7529C35.3765 19.8414 34.8826 19.9135 34.2764 20.0032C34.5649 19.4408 34.806 18.9719 35.1557 18.2906ZM35.6509 14.5179C36.1703 13.9252 36.659 13.3665 37.1503 12.8092L37.3188 12.8875C37.0725 13.6648 36.8275 14.4408 36.5582 15.2965C36.2022 14.9906 35.9482 14.7732 35.6509 14.5179ZM36.0107 16.0991C35.4709 16.5389 34.9885 16.9332 34.5062 17.3276C34.4487 17.2669 34.3926 17.2062 34.3364 17.1456C34.6299 16.5996 34.9247 16.0523 35.2565 15.4355C35.5041 15.6542 35.7313 15.8526 36.0107 16.0991ZM33.4367 26.5223C33.6907 25.8537 33.8987 25.2331 34.1718 24.6416C34.2484 24.4736 34.5049 24.3156 34.6989 24.2878C35.083 24.2322 35.4811 24.2713 35.8767 24.2713C35.7325 25.8537 35.0115 26.5324 33.4367 26.5223ZM32.5894 28.7455C32.9365 27.4209 32.9416 27.4222 34.4806 27.5043C34.1986 28.3069 33.9242 29.0867 33.6422 29.8918H32.3648C32.449 29.452 32.4988 29.0943 32.5894 28.7455ZM32.0125 23.5067C32.4822 22.9468 32.9505 22.3856 33.5171 21.7094V23.489C33.0028 23.5522 32.5549 23.6065 32.1083 23.6621C32.0763 23.6103 32.0444 23.5585 32.0125 23.5067ZM31.9105 27.6396C31.7267 28.4586 31.5684 29.1638 31.4089 29.8691C31.3489 29.8931 31.289 29.9171 31.2277 29.9411C31.0567 29.4153 30.7645 28.8959 30.7466 28.3651C30.7249 27.7078 31.3719 27.766 31.9105 27.6396ZM31.3859 26.8939C31.6144 26.0774 31.7024 25.3785 32.0164 24.7996C32.1721 24.5127 32.7425 24.447 33.1266 24.2814C33.1636 24.3434 33.2019 24.4053 33.2389 24.4672C32.9709 25.1156 32.7655 25.7994 32.4069 26.3959C32.2563 26.6462 31.7867 26.7106 31.3859 26.8939ZM41.3068 26.3125C41.0886 26.3011 40.915 26.2935 40.6534 26.2796C40.7836 25.7754 40.901 25.3229 41.0158 24.8704C41.0503 24.8767 41.086 24.8831 41.1217 24.8881C41.1805 25.3406 41.2379 25.7918 41.3068 26.3125ZM41.7841 5.64927C43.4022 9.57237 46.6883 10.5607 50.379 10.7339C52.6671 10.8413 54.9668 10.6985 57.2613 10.653C58.3881 10.6302 59.3874 10.2523 60.2284 9.50538C60.7567 9.03648 61.271 8.55241 61.7904 8.07593C62.052 9.21722 61.724 10.2132 60.5729 10.7124C59.2827 11.2723 57.8904 11.6489 56.5058 11.9346C55.5296 12.1355 54.4908 12.1077 53.4826 12.0812C51.3157 12.0243 49.1462 11.9219 46.9793 11.7968C45.3726 11.7058 44.1845 10.8173 43.1342 9.69749C42.5817 9.10852 42.0036 8.5423 41.4497 7.95333C41.3285 7.82442 41.1639 7.61209 41.197 7.48443C41.3591 6.86387 41.5812 6.25973 41.7841 5.64927ZM43.184 3.86973C43.9395 3.25927 44.6899 2.5515 45.5692 2.19887C49.9655 0.439548 54.3785 0.478724 58.6574 2.55655C59.589 3.00902 60.37 3.86467 61.0604 4.6685C61.8363 5.5747 61.673 6.66291 60.8192 7.49707C60.3113 7.99378 59.7792 8.47026 59.2381 8.93411C58.5336 9.53951 57.6722 9.73035 56.7636 9.75058C56.1217 9.76448 55.4798 9.74552 54.8379 9.74425C54.196 9.74299 53.5553 9.74425 52.9147 9.74425C52.9083 9.80618 52.9032 9.86812 52.8981 9.93131C51.0388 9.76827 49.1309 9.80998 47.3328 9.3929C45.1799 8.8924 43.5732 7.5413 42.8688 5.33077C42.6799 4.74054 42.7361 4.2312 43.184 3.86973ZM62.1171 11.5845C62.0533 11.9004 61.9882 12.2164 61.8899 12.7043C61.5913 12.3656 61.4394 12.1924 61.2353 11.9624C61.4828 11.7955 61.6908 11.6565 61.8989 11.5175C61.9716 11.5402 62.0443 11.5617 62.1171 11.5845ZM61.8708 15.6656C61.6194 15.2472 61.3999 14.8807 61.1804 14.5129C61.2046 14.4484 61.2289 14.384 61.2544 14.3195C61.4382 14.3777 61.6857 14.3827 61.7917 14.5053C62.0635 14.8238 62.5573 15.16 61.8708 15.6656ZM62.7003 19.9109C62.7705 19.9059 62.8394 19.9021 62.9096 19.8983C62.953 20.6061 62.9963 21.3151 63.0436 22.0734C62.0762 21.8055 62.0277 21.2582 62.7003 19.9109ZM62.773 26.0888C63.4188 26.4452 63.3128 27.2111 62.3557 28.8226C62.1362 28.6317 61.9295 28.4535 61.733 28.2829C62.0928 27.5233 62.4323 26.8067 62.773 26.0888ZM59.7587 26.7448C60.2603 26.0787 60.7388 25.4455 61.2136 24.8161C62.1541 25.3431 62.089 25.9081 60.9188 27.584C60.5487 27.316 60.1799 27.0493 59.7587 26.7448ZM58.235 28.0605C59.3325 27.3249 59.3363 27.3236 60.245 28.317C59.5622 29.6163 58.6893 29.6163 57.574 28.4662C57.8292 28.3107 58.0372 28.1944 58.235 28.0605ZM42.0329 24.5608C42.3647 24.9917 42.611 25.2888 42.8305 25.6022C43.1406 26.042 43.4252 26.0218 43.771 25.6313C44.0059 25.3659 45.5207 24.0931 46.9819 23.5117C48.5388 23.2514 50.0765 23.3752 51.5786 23.8353C52.7896 24.3168 53.5375 26.5059 53.5885 26.6538C55.4428 26.1103 56.1 24.1854 57.6008 23.2349C57.722 23.1578 57.8164 23.0416 58.087 23.0188C57.6888 24.0059 57.2817 24.9905 56.8963 25.9826C56.5199 26.9533 56.0477 27.9088 55.832 28.9148C55.4096 30.8701 54.4793 32.4803 52.9747 33.7997C52.3239 34.371 51.6003 34.7451 50.7299 34.8083C49.3772 34.9069 48.0258 35.0169 46.6718 35.0737C45.9214 35.1066 45.3292 34.7767 45.0204 34.0639C44.4653 32.7836 43.9637 31.4552 43.2657 30.2685C42.7667 29.4179 42.9492 28.5433 42.6314 27.7154C42.306 26.8636 42.2205 25.922 42.0355 25.0183C42.0151 24.926 42.0329 24.8249 42.0329 24.5608ZM42.4821 11.4808C42.2933 11.4619 42.0202 11.3077 41.964 11.151C41.779 10.6378 41.6756 10.0944 41.6756 9.48137C42.2218 10.0729 42.768 10.6631 43.3869 11.333C43.0092 11.4025 42.7374 11.5074 42.4821 11.4808ZM60.5117 24.2903C60.0599 24.8957 59.6924 25.4998 59.2011 25.9776C59.0352 26.1368 58.5502 25.9738 58.161 25.9548C58.5183 25.0322 58.8118 24.2764 59.136 23.4372C59.5814 23.714 59.991 23.968 60.5117 24.2903ZM60.8358 23.35C60.3458 23.0567 59.9514 22.8191 59.5941 22.6043C59.9693 22.3389 60.333 22.0823 60.7312 21.8004C61.405 22.2036 60.869 22.7446 60.8358 23.35ZM60.0306 19.346C60.2284 19.0199 60.8945 18.9719 61.3884 18.7848C61.0055 19.2385 60.6201 19.6038 60.3522 20.0398C60.0969 20.4544 59.9642 20.9423 59.7779 21.3973C59.6771 21.3657 59.5762 21.3328 59.4767 21.2999C59.6452 20.6402 59.6911 19.9059 60.0306 19.346ZM60.7146 13.8266C60.3636 13.4222 60.1582 13.1871 59.8621 12.8458C60.0395 12.7258 60.1952 12.6209 60.4236 12.4654C60.6023 12.7119 60.8116 12.9217 60.9111 13.1744C60.9622 13.3034 60.8192 13.5068 60.7146 13.8266ZM59.8749 16.9926V14.8074C60.2143 15.3205 60.4313 15.6466 60.6661 16.0017C60.43 16.2962 60.1965 16.5907 59.8749 16.9926ZM61.9359 22.8596C62.8981 23.0858 62.4769 23.6697 62.297 24.2359C61.331 23.9415 61.8772 23.3487 61.9359 22.8596ZM60.6291 18.0897C60.5908 18.0505 60.5538 18.0113 60.5155 17.9734C60.7363 17.5955 60.957 17.2176 61.2263 16.7575C61.4433 17.0583 61.6079 17.2846 61.8312 17.593C61.3846 17.7775 61.0055 17.933 60.6291 18.0897ZM52.9747 13.0304H54.7766C54.7958 13.2199 54.8162 13.4297 54.8494 13.7596C54.2572 13.8127 53.6919 13.8645 53.0551 13.9227C53.0257 13.6004 53.004 13.3463 52.9747 13.0304ZM50.2437 13.0127H51.9665C52.0112 13.3071 52.0584 13.6079 52.1248 14.0503C51.5109 14.0819 50.9507 14.1097 50.3815 14.1388C50.3292 13.7141 50.2884 13.3817 50.2437 13.0127ZM46.9257 12.8901C48.5949 12.5829 49.2726 12.8989 49.3427 14.1034C48.4469 13.6534 47.6863 13.2718 46.9257 12.8901ZM52.7501 14.9868C54.7447 14.753 56.5326 13.9441 58.4111 13.388C58.5477 13.3476 58.6817 13.3046 59.0198 13.1997C58.8578 14.9224 58.7391 16.4972 58.5502 18.0619C58.4622 18.8 58.3103 19.5469 58.0627 20.2484C57.5586 21.6867 56.858 23.0037 55.5066 23.8972C55.0089 24.2258 54.6401 24.7428 54.1283 25.2572C53.7927 24.806 53.4558 24.4331 53.2095 24.0097C52.5255 22.8381 51.3591 22.6144 50.1697 22.5095C49.2624 22.4299 48.3346 22.4185 47.4323 22.5196C46.8734 22.5828 46.3017 22.8431 45.8155 23.1414C44.9962 23.6432 44.2407 24.2435 43.4584 24.8034C43.3537 24.7718 43.2478 24.7402 43.1432 24.7086C42.8828 23.7443 42.4745 22.7913 42.3941 21.8131C42.2231 19.7542 42.1401 17.6789 42.1912 15.615C42.2129 14.7214 42.6046 13.8178 42.9262 12.9545C43.221 12.1583 44.2853 11.9598 44.9757 12.5033C45.2259 12.7017 45.476 12.9014 45.7134 13.1138C47.7373 14.9236 50.1135 15.2965 52.7501 14.9868ZM62.9198 16.0308C63.9228 17.186 63.9228 17.186 63.1431 17.9532C62.944 17.3225 62.0048 16.8397 62.9198 16.0308ZM64.3759 17.9987C64.4946 18.4474 64.5494 18.8657 64.7166 19.236C64.9923 19.8465 64.7919 20.194 64.201 20.4051C63.5374 19.1589 63.5476 18.9731 64.3759 17.9987ZM65.3355 20.8121C65.5601 21.554 65.7465 22.1632 65.9302 22.7736C65.8766 22.8052 65.8218 22.8381 65.7682 22.8697C65.3572 22.4147 64.9463 21.9597 64.4729 21.4352C64.7766 21.2153 65.0025 21.0522 65.3355 20.8121ZM65.5652 27.5511C64.1832 26.042 64.284 26.6272 64.9731 24.9905C66.3195 25.3873 66.4394 25.903 65.5652 27.5511ZM66.5709 27.7306C66.8082 27.2187 66.8873 26.6335 67.0367 26.0724C67.9006 26.4528 67.8827 27.7824 67.0379 29.2156C66.4203 28.858 66.2531 28.4156 66.5709 27.7306ZM68.6063 27.6434C69.1576 28.0958 69.6681 28.5167 70.2296 28.978C69.626 29.7591 68.8284 29.4672 68.0601 29.5215C68.249 28.8744 68.4162 28.3006 68.6063 27.6434ZM63.4749 28.6646C63.7378 28.3006 63.8463 27.8254 64.0249 27.3994C65.4198 28.3271 65.3509 29.5253 63.8386 30.5276C63.1035 29.9904 62.9274 29.4191 63.4749 28.6646ZM63.9522 22.0254C64.2266 22.4412 64.4652 22.8065 64.7038 23.1705C64.6234 23.216 64.5443 23.2615 64.4639 23.307C64.0109 23.0441 63.54 22.7888 63.9522 22.0254ZM63.6383 25.376C62.7666 24.9349 63.4137 24.3863 63.4162 23.8606C64.238 24.2777 64.238 24.2777 63.6383 25.376ZM72.177 32.6433C72.0379 32.9504 71.8656 33.3334 71.641 33.8301C70.9711 33.3763 70.3623 32.9656 69.6668 32.4942C70.541 32.546 71.3041 32.5915 72.177 32.6433ZM71.0093 29.5493C71.4522 29.912 71.8503 30.2381 72.2383 30.5566C71.6487 31.8053 71.3807 31.9102 70.1173 31.5576C69.7255 31.4489 69.1959 31.3086 68.9024 31.478C68.1035 31.938 67.4067 31.6448 66.6691 31.43C66.1791 31.2871 65.6878 31.1595 64.9923 30.9687C66.3233 30.4631 67.5012 30.3847 68.6893 30.4037C69.5571 30.4163 70.37 30.3114 71.0093 29.5493ZM73.3868 31.8382C74.2406 32.3678 74.3248 33.207 73.5757 34.5973C73.2375 34.4393 72.9287 34.2927 72.6198 34.1473C72.8802 33.3637 73.1354 32.5953 73.3868 31.8382ZM74.9463 33.7113C76.0042 34.4279 75.5435 35.257 75.0433 36.2441C74.8174 35.7904 74.483 35.4112 74.4767 35.0257C74.469 34.6074 74.7651 34.1814 74.9463 33.7113ZM76.1867 36.1139C76.7827 37.714 77.3403 39.3027 77.1311 41.0266C77.066 41.0355 77.0009 41.0456 76.9371 41.0544C76.5542 39.9081 76.105 38.7782 75.8268 37.6078C75.7196 37.1554 76.0017 36.6119 76.1867 36.1139ZM78.6599 52.0616C78.6203 51.3728 78.3077 50.7042 78.2107 50.0141C77.9606 48.2535 77.773 46.4841 77.5369 44.721C77.4156 43.8148 77.1489 42.9275 77.7742 42.0618C77.981 41.7736 78.0193 41.3173 78.0193 40.9382C78.0154 37.805 77.5445 34.8273 75.1262 32.4878C73.8092 31.2138 72.5305 29.9032 71.239 28.6039C70.9494 28.312 70.6775 28.0036 70.4057 27.6952C69.9118 27.134 69.5252 26.3896 68.9075 26.0458C68.0027 25.5415 67.551 24.8148 67.2255 23.9402C67.015 23.3702 66.8669 22.7774 66.7049 22.191C66.2161 20.414 65.6559 18.6521 65.2679 16.8549C64.7893 14.638 64.0875 12.5387 62.6786 10.6568C63.3498 9.26019 63.2848 7.92173 62.4463 6.6212C62.3723 6.50745 62.3404 6.35073 62.3353 6.21297C62.2345 4.09217 61.0808 2.62733 59.2304 1.75777C58.0015 1.18144 56.6641 0.771946 55.3318 0.476197C52.0941 -0.244217 48.8718 -0.226522 45.7542 1.0816C44.501 1.60737 43.2823 2.20266 42.4043 3.27949C42.0865 3.6713 41.8389 4.12377 41.5875 4.56486C41.1715 5.29539 40.73 6.01833 40.3994 6.78677C40.2361 7.1634 40.1289 7.42124 39.6937 7.59186C38.6728 7.99125 37.4962 8.29332 36.7394 9.00488C34.6185 11.0006 32.7093 13.1909 31.6961 16.0106C31.0261 17.8736 30.365 19.7087 30.2527 21.7183C30.2042 22.6068 29.9796 23.6027 29.4909 24.3244C28.5503 25.7122 27.3954 26.9647 26.2724 28.2235C25.6943 28.8719 24.9988 29.4204 24.3518 30.0068C23.9192 30.3961 23.3781 30.7058 23.0526 31.1671C20.8423 34.2977 20.5782 37.6811 21.8301 41.2352C21.8939 41.4121 21.9756 41.6093 21.9564 41.7862C21.6272 44.7867 21.423 47.8099 20.9049 50.7788C20.2885 54.3075 20.6981 57.7668 21.1422 61.2462C21.1984 61.6785 21.3911 62.069 21.9118 62.088C23.4572 62.1461 25.0128 62.3041 26.548 62.1929C28.2849 62.0678 29.9949 61.6014 31.7331 61.4548C33.2861 61.3246 34.8635 61.4813 36.4255 61.4131C38.1993 61.336 39.9656 61.087 41.7381 61.0314C43.2389 60.9846 44.7473 61.1881 46.2468 61.1388C48.8106 61.0541 51.3693 60.795 53.9318 60.7281C56.0515 60.6724 58.1763 60.8595 60.2973 60.8153C65.5219 60.7078 70.7413 60.7773 75.9621 60.9467C76.4994 60.9644 77.0519 60.9176 77.5815 60.819C78.6191 60.6257 78.9674 60.2035 78.9368 59.1482C78.8679 56.786 78.7964 54.4213 78.6599 52.0616Z" fill="white"/>
<path d="M61.0238 29.0162C60.7992 29.1881 60.632 29.3157 60.4648 29.4434C60.498 29.5167 60.5312 29.5887 60.5644 29.662C60.9089 29.7139 61.2535 29.7669 61.5981 29.8188C61.6198 29.7455 61.6415 29.6721 61.6632 29.5988C61.4756 29.427 61.2867 29.2551 61.0238 29.0162Z" fill="white"/>
<path d="M38.3457 53.08C38.6303 53.08 38.8472 53.0927 39.0616 53.0775C42.1806 52.8664 45.2957 52.5859 48.4184 52.4582C50.6147 52.3697 50.482 52.3887 50.5317 50.4714C50.5611 49.3111 50.2816 48.9838 49.0986 48.98C47.5723 48.9762 46.0448 48.9547 44.5198 48.9787C42.6974 49.0078 40.875 49.0621 39.054 49.1519C38.8115 49.1633 38.3865 49.44 38.3776 49.6107C38.3164 50.7482 38.3457 51.8907 38.3457 53.08ZM44.6193 48.113C46.4174 48.113 48.2155 48.1079 50.0136 48.1155C51.263 48.1206 51.6547 48.4277 51.6241 49.6448C51.5986 50.6306 51.3765 51.6114 51.226 52.5934C51.1494 53.099 50.7997 53.3669 50.3071 53.3859C49.669 53.4112 49.0259 53.3353 48.3891 53.3758C45.6594 53.5502 42.9322 53.7587 40.2038 53.9357C39.3973 53.9875 38.5856 54.0001 37.7791 53.9647C37.6349 53.9597 37.3899 53.6361 37.3873 53.4567C37.3707 52.0955 37.4422 50.7317 37.4013 49.3718C37.3822 48.7361 37.6081 48.3683 38.2028 48.2785C38.9289 48.1698 39.6678 48.1003 40.4029 48.0852C41.8079 48.0561 43.213 48.0763 44.6193 48.0763C44.6193 48.089 44.6193 48.1003 44.6193 48.113Z" fill="white"/>
<path d="M47.2322 7.02787C47.7643 7.18332 48.2033 7.31098 48.7572 7.47402C48.3054 6.49451 48.2595 6.48187 47.2322 7.02787ZM53.0017 2.97965C53.0081 2.91645 53.0144 2.85326 53.0195 2.7888C52.1913 2.75341 51.3644 2.71171 50.5361 2.69275C50.4685 2.69148 50.3983 2.84441 50.3294 2.9253C50.4481 3.00619 50.5719 3.16165 50.6855 3.15533C51.4588 3.11615 52.2309 3.04284 53.0017 2.97965ZM59.3225 6.38329C59.3135 5.60347 58.6704 4.72634 57.7439 4.28903C57.7439 4.42174 57.6916 4.58731 57.7528 4.65556C58.2709 5.24832 58.8095 5.82465 59.3225 6.38329ZM57.6584 5.91691C57.495 6.64617 57.3827 7.15046 57.2411 7.78493C57.7528 7.59409 58.1216 7.45632 58.5798 7.2857C58.2709 6.82691 58.0221 6.45786 57.6584 5.91691ZM54.7883 6.47429C54.9019 7.99347 55.1367 8.19064 56.2674 7.71921C55.7748 7.30466 55.323 6.92423 54.7883 6.47429ZM48.0362 3.7582C48.516 3.62676 48.9601 3.50669 49.3927 3.38915C49.4399 2.86337 49.2613 2.63082 48.7623 2.73319C48.2505 2.83683 47.7682 2.96827 48.0362 3.7582ZM54.1566 2.93036C54.1566 2.98091 54.1579 3.03147 54.1579 3.08202C54.9925 3.42074 55.8258 3.75946 56.6694 4.10198C56.8289 3.67858 56.7166 3.40558 56.2418 3.31711C55.5463 3.18819 54.8508 3.05927 54.1566 2.93036ZM49.6722 4.37118C49.1809 4.48999 48.7431 4.59742 48.3029 4.70485C48.5977 5.94851 49.3263 5.17249 49.9389 5.19903C49.847 4.91592 49.7756 4.69095 49.6722 4.37118ZM47.3075 4.98922C46.6337 5.35575 46.0109 5.69573 45.3881 6.03572C45.4175 6.11534 45.4468 6.19497 45.4762 6.27459C46.3006 6.64997 46.8851 5.83603 47.6992 5.78421C47.5538 5.48972 47.4529 5.28371 47.3075 4.98922ZM51.2674 7.74575C51.0709 7.4045 50.8947 7.09738 50.7161 6.79152C50.2886 6.05973 50.1342 6.02308 49.3353 6.45912C49.9274 7.814 49.9274 7.814 51.2674 7.74575ZM50.6663 4.15759L50.5502 4.39267C50.7301 4.61132 50.905 5.01197 51.0913 5.01703C51.8123 5.03725 52.5372 4.93235 53.3105 4.86915C53.239 4.56582 53.1803 4.31557 53.1038 3.98949C52.2641 4.04763 51.4652 4.10198 50.6663 4.15759ZM54.1962 4.11209C54.2332 5.30772 54.4437 5.515 56.5609 6.55897C56.5724 6.03193 57.0828 5.43285 56.3771 5.05115C55.7007 4.68463 54.9606 4.43438 54.1962 4.11209ZM53.983 7.86961C53.9588 6.24426 53.2863 5.74503 51.5175 6.03698C52.0982 7.85824 52.4517 8.12113 53.983 7.86961ZM53.3296 8.87061C50.9994 8.98309 48.4854 8.45479 46.0237 7.61684C45.725 7.51446 45.4264 7.39439 45.1508 7.24399C43.9895 6.60952 43.7164 5.58072 44.5663 4.57088C45.9254 2.95563 47.5487 1.74863 49.824 1.72082C52.0828 1.69428 54.3072 1.94579 56.492 2.50064C58.285 2.95563 59.5114 4.08807 60.2349 5.75261C60.6675 6.74602 60.4595 7.2857 59.5139 7.80768C57.6711 8.82132 55.6599 8.91611 53.3296 8.87061Z" fill="white"/>
<path d="M0 68.8915H1.39994V73.8358H7.35832V68.8915H8.75826V80.1034H7.35832V75.1515H1.39994V80.1034H0V68.8915Z" fill="white"/>
<path d="M13.1055 79.7999C12.4291 79.4422 11.9021 78.9367 11.5256 78.2858C11.1479 77.6336 10.959 76.8766 10.959 76.0158V68.9002L12.3742 68.8913V75.8996C12.3742 76.5682 12.5236 77.1407 12.8222 77.6121C13.1208 78.0848 13.5036 78.4387 13.9694 78.6738C14.4365 78.9114 14.9215 79.0289 15.4243 79.0289C15.9271 79.0289 16.4133 78.9114 16.8829 78.6738C17.3513 78.4387 17.7341 78.0848 18.0302 77.6121C18.3262 77.1407 18.4743 76.5682 18.4743 75.8996V68.8913H19.8895V76.0158C19.8895 76.8728 19.7007 77.6273 19.3242 78.282C18.9464 78.9354 18.4194 79.4422 17.743 79.7999C17.0667 80.1576 16.2946 80.3371 15.4243 80.3371C14.5539 80.3371 13.7818 80.1576 13.1055 79.7999Z" fill="white"/>
<path d="M22.0898 68.8915H23.5051L29.4086 77.6515V68.8915H30.8239V80.1034H29.4086L23.5051 71.3371V80.1034H22.0898V68.8915Z" fill="white"/>
<path d="M38.9771 76.1798L36.9875 70.3483L35.0223 76.1798H38.9771ZM36.0291 68.891H37.9791L41.768 80.1029H40.3132L39.4173 77.4791H34.582L33.6938 80.1029H32.2402L36.0291 68.891Z" fill="white"/>
<path d="M52.2798 76.1798L50.2903 70.3483L48.325 76.1798H52.2798ZM49.3319 68.891H51.2818L55.0708 80.1029H53.6159L52.7201 77.4791H47.8847L46.9965 80.1029H45.543L49.3319 68.891Z" fill="white"/>
<path d="M60.9101 74.6455C61.1768 74.6455 61.4142 74.6215 61.6184 74.5747C62.1263 74.461 62.5104 74.2006 62.7694 73.7962C63.0285 73.3917 63.1587 72.9342 63.1587 72.4261C63.1587 71.918 63.0285 71.4605 62.7694 71.0561C62.5104 70.6516 62.1263 70.3925 61.6184 70.2775C61.4142 70.2307 61.1768 70.2067 60.9101 70.2067H57.883V74.6455H60.9101ZM56.4844 68.891H60.9573C61.2559 68.891 61.5341 68.9125 61.7906 68.9542C62.3879 69.0465 62.8971 69.2538 63.3156 69.5723C63.7355 69.892 64.052 70.2977 64.2664 70.7869C64.482 71.2785 64.5892 71.8245 64.5892 72.4261C64.5892 73.1794 64.4208 73.8404 64.0864 74.4117C63.7508 74.9829 63.2684 75.3988 62.6393 75.6579L64.8253 80.1029H63.2212L61.1934 75.9612H57.883V80.1029H56.4844V68.891Z" fill="white"/>
<path d="M72.5064 76.1798L70.5168 70.3483L68.5516 76.1798H72.5064ZM69.5584 68.891H71.5084L75.2973 80.1029H73.8425L72.9466 77.4791H68.1113L67.2231 80.1029H65.7695L69.5584 68.891Z" fill="white"/>
<path d="M81.2477 78.7804C81.6675 78.7804 82.0427 78.7033 82.3758 78.5504C82.7089 78.3974 82.9692 78.1775 83.1581 77.8919C83.347 77.6062 83.4414 77.2726 83.4414 76.8883C83.4414 76.5142 83.3546 76.1743 83.1823 75.8671C83.0088 75.5613 82.7676 75.3211 82.4587 75.1442C82.1486 74.9672 81.7977 74.8788 81.4046 74.8788H78.1262V78.7804H81.2477ZM81.106 73.5707C81.4416 73.5707 81.7454 73.4999 82.0185 73.3571C82.2903 73.2142 82.506 73.012 82.6629 72.7504C82.8199 72.4875 82.8977 72.1854 82.8977 71.8429C82.8977 71.527 82.8225 71.2426 82.6706 70.9936C82.5187 70.7459 82.3082 70.55 82.0376 70.4097C81.7683 70.2707 81.457 70.1999 81.106 70.1999H78.1262V73.5707H81.106ZM76.7109 68.8918H81.1213C81.7773 68.8918 82.3464 69.027 82.8314 69.2962C83.3163 69.5667 83.689 69.9269 83.948 70.3793C84.2071 70.8306 84.3372 71.3184 84.3372 71.8429C84.3372 72.351 84.2249 72.8085 84.0029 73.2168C83.7796 73.625 83.4695 73.9422 83.0713 74.171C83.643 74.4099 84.0871 74.7676 84.4036 75.2453C84.7214 75.723 84.8796 76.2728 84.8796 76.8959C84.8796 77.5443 84.7431 78.1105 84.4712 78.5933C84.1981 79.0749 83.8089 79.4477 83.3036 79.7093C82.7969 79.9722 82.2022 80.1037 81.5144 80.1037H76.7109V68.8918Z" fill="white"/>
<path d="M86.6035 68.8918H88.0022V80.1037H86.6035V68.8918Z" fill="white"/>
<path d="M92.1661 79.605C91.371 79.1172 90.7674 78.4334 90.3539 77.5538C89.9392 76.6741 89.7324 75.6554 89.7324 74.4977C89.7324 73.34 89.9392 72.3213 90.3539 71.4416C90.7674 70.5619 91.371 69.8782 92.1661 69.3903C92.9598 68.9025 93.9093 68.6585 95.0157 68.6585C95.8746 68.6585 96.6403 68.8064 97.3115 69.1022C97.9828 69.3979 98.5443 69.82 98.9973 70.3673C99.4504 70.9146 99.7847 71.5629 100 72.3112L98.5762 72.6827C98.3414 71.8271 97.9215 71.1623 97.3192 70.6896C96.7156 70.2182 95.9486 69.9818 95.0157 69.9818C94.1875 69.9818 93.4882 70.1714 92.9164 70.5506C92.346 70.9297 91.9185 71.4618 91.6352 72.1469C91.3519 72.8319 91.2102 73.6307 91.2102 74.5444C91.2102 75.4431 91.3544 76.2267 91.6428 76.8953C91.9312 77.5664 92.36 78.0858 92.9292 78.4574C93.4971 78.829 94.1926 79.0135 95.0157 79.0135C95.9486 79.0135 96.7156 78.7785 97.3192 78.3058C97.9215 77.8331 98.3414 77.1683 98.5762 76.3126L100 76.6855C99.7847 77.4324 99.4504 78.0808 98.9973 78.6293C98.5443 79.1753 97.9828 79.5975 97.3115 79.8945C96.6403 80.1889 95.8746 80.3368 95.0157 80.3368C93.9093 80.3368 92.9598 80.0942 92.1661 79.605Z" fill="white"/>
<path d="M18.8303 84.7961L18.9299 84.5029H20.3898L20.497 84.7961H18.8303ZM18.3301 85.4381L19.5041 82.8699H19.8704L21.0483 85.4381H20.6603L19.6113 83.0759H19.7606L18.7116 85.4381H18.3301Z" fill="white"/>
<path d="M23.2406 85.4379L22.3001 84.1727L22.6 83.9895L23.663 85.4379H23.2406ZM22.6331 84.1942L22.2924 84.1437L23.2215 82.8697H23.6183L22.6331 84.1942ZM21.7475 83.9857H22.5885V84.3092H21.7475V83.9857ZM21.4961 82.8697H21.8585V85.4379H21.4961V82.8697Z" fill="white"/>
<path d="M24.1487 84.7961L24.2482 84.5029H25.7082L25.8154 84.7961H24.1487ZM23.6484 85.4381L24.8225 82.8699H25.1888L26.3667 85.4381H25.9787L24.9297 83.0759H25.079L24.03 85.4381H23.6484Z" fill="white"/>
<path d="M26.9516 85.1849L26.5521 85.118C26.6479 85.1255 26.727 85.0939 26.7908 85.0219C26.8533 84.9486 26.9031 84.8475 26.9388 84.7173C26.9746 84.5859 27.0014 84.4329 27.0179 84.2585C27.0358 84.0841 27.0473 83.8958 27.0549 83.6948L27.0817 82.8695H28.9041V85.2646H28.5366V83.1893H27.3995L27.3804 83.729C27.374 83.9097 27.3625 84.0828 27.3459 84.2497C27.3293 84.4165 27.3076 84.5656 27.277 84.6984C27.2476 84.8323 27.2068 84.9423 27.1532 85.027C27.1009 85.1129 27.0333 85.1647 26.9516 85.1849ZM26.459 86.0002L26.4628 85.118H29.2857V86.0002H28.9411V85.4377H26.8074L26.8035 86.0002H26.459Z" fill="white"/>
<path d="M30.1318 83.9776H31.4654V84.2898H30.1318V83.9776ZM29.7949 85.4386V82.8692H31.6237V83.1889H30.165V85.1189H31.676V85.4386H29.7949Z" fill="white"/>
<path d="M32.2559 85.4379V82.8697H32.5596L33.7222 84.811H33.5588L34.7074 82.8697H35.0111L35.0149 85.4379H34.6601L34.6563 83.4233H34.7418L33.7183 85.1257H33.5486L32.5187 83.4233H32.6119V85.4379H32.2559Z" fill="white"/>
<path d="M35.8223 85.4379V82.8697H36.1885V84.8502L37.7225 82.8697H38.0632V85.4379H37.7008V83.4612L36.163 85.4379H35.8223Z" fill="white"/>
<path d="M40.3341 84.4837V83.0833L40.4298 83.1894H39.6705C39.4484 83.1894 39.2787 83.24 39.16 83.3411C39.0413 83.4435 38.9813 83.5926 38.9813 83.7911C38.9813 83.9794 39.0375 84.1247 39.1511 84.2271C39.2634 84.3295 39.4293 84.3813 39.6488 84.3813H40.4298L40.3341 84.4837ZM38.6074 85.4379L39.2481 84.5279H39.6258L39.0005 85.4379H38.6074ZM40.3341 85.4379V84.6012L40.4298 84.6897H39.6194C39.4088 84.6897 39.2276 84.6543 39.077 84.5822C38.9252 84.5115 38.8091 84.4091 38.7287 84.2764C38.6483 84.1424 38.6074 83.9832 38.6074 83.7936C38.6074 83.5989 38.6508 83.4321 38.7376 83.2944C38.8231 83.1553 38.9469 83.0504 39.1038 82.9784C39.2621 82.9063 39.4459 82.8697 39.6564 82.8697H40.6965V85.4379H40.3341Z" fill="white"/>
<path d="M42.6409 84.7961L42.7404 84.5029H44.2003L44.3075 84.7961H42.6409ZM42.1406 85.4381L43.3147 82.8699H43.6809L44.8588 85.4381H44.4709L43.4219 83.0759H43.5712L42.5222 85.4381H42.1406Z" fill="white"/>
<path d="M45.6806 84.5244L45.5147 84.3398H46.3111C46.5471 84.3398 46.7271 84.2905 46.8496 84.1894C46.9721 84.0896 47.0334 83.948 47.0334 83.7648C47.0334 83.5815 46.9721 83.4399 46.8496 83.3401C46.7271 83.239 46.5471 83.1884 46.3111 83.1884H45.5147L45.6806 83.0052V84.5244ZM45.3105 85.4381V82.8687H46.3213C46.5484 82.8687 46.7424 82.9053 46.9032 82.9761C47.064 83.0469 47.1878 83.1492 47.2733 83.2845C47.3601 83.4185 47.4034 83.579 47.4034 83.7648C47.4034 83.9506 47.3601 84.1111 47.2733 84.2438C47.1878 84.3777 47.064 84.4801 46.9032 84.5509C46.7424 84.6242 46.5484 84.6596 46.3213 84.6596H45.5147L45.6806 84.4877V85.4381H45.3105Z" fill="white"/>
<path d="M47.928 84.7961L48.0275 84.5029H49.4875L49.5946 84.7961H47.928ZM47.4277 85.4381L48.6018 82.8699H48.9681L50.1459 85.4381H49.758L48.709 83.0759H48.8583L47.8093 85.4381H47.4277Z" fill="white"/>
<path d="M50.96 85.1477H51.69C51.9044 85.1477 52.0677 85.1086 52.1775 85.0264C52.2872 84.9468 52.3421 84.828 52.3421 84.6713C52.3421 84.3603 52.1251 84.2049 51.69 84.2049H50.96V85.1477ZM50.5938 85.4372V82.869H52.5501V83.1811H50.96V83.9154H51.7678C52.0766 83.9154 52.3115 83.9786 52.4723 84.1063C52.6318 84.2327 52.7122 84.4185 52.7122 84.6599C52.7122 84.9101 52.6254 85.1022 52.4506 85.2362C52.277 85.3714 52.0281 85.4372 51.704 85.4372H50.5938Z" fill="white"/>
<path d="M54.4604 85.4674C54.2626 85.4674 54.0814 85.4358 53.9142 85.3701C53.7471 85.3057 53.6029 85.2134 53.4803 85.0946C53.3591 84.9758 53.2634 84.838 53.1945 84.6788C53.1256 84.5195 53.0898 84.3438 53.0898 84.1543C53.0898 83.9634 53.1256 83.789 53.1945 83.6298C53.2634 83.4705 53.3591 83.3327 53.4829 83.2127C53.6067 83.0939 53.7509 83.0029 53.9181 82.9371C54.0852 82.8727 54.2665 82.8411 54.4643 82.8411C54.6646 82.8411 54.8497 82.8739 55.0181 82.9409C55.1878 83.0092 55.3308 83.109 55.4495 83.2405L55.2083 83.4718C55.11 83.3694 54.999 83.2923 54.8752 83.2417C54.7527 83.1924 54.62 83.1672 54.4796 83.1672C54.3328 83.1672 54.1975 83.1912 54.0738 83.2405C53.9487 83.2885 53.8415 83.358 53.7496 83.4452C53.659 83.5337 53.5875 83.6386 53.5365 83.7587C53.4855 83.88 53.4612 84.0127 53.4612 84.1543C53.4612 84.2958 53.4855 84.4273 53.5365 84.5473C53.5875 84.6687 53.659 84.7736 53.7496 84.862C53.8415 84.9505 53.9487 85.0188 54.0738 85.0681C54.1975 85.1161 54.3328 85.1401 54.4796 85.1401C54.62 85.1401 54.7527 85.1161 54.8752 85.0655C54.999 85.0162 55.11 84.9379 55.2083 84.833L55.4495 85.0643C55.3308 85.1957 55.1878 85.2955 55.0181 85.3651C54.8497 85.4333 54.6633 85.4674 54.4604 85.4674Z" fill="white"/>
<path d="M57.7054 85.4379L56.7649 84.1727L57.0648 83.9895L58.1279 85.4379H57.7054ZM57.098 84.1942L56.7573 84.1437L57.6863 82.8697H58.0832L57.098 84.1942ZM56.2123 83.9857H57.0533V84.3092H56.2123V83.9857ZM55.9609 82.8697H56.3234V85.4379H55.9609V82.8697Z" fill="white"/>
<path d="M59.6654 85.1403C59.8108 85.1403 59.9448 85.1151 60.0673 85.067C60.1899 85.0177 60.2958 84.9495 60.3864 84.8598C60.4757 84.7713 60.5459 84.6664 60.597 84.5463C60.648 84.4275 60.6735 84.2961 60.6735 84.1545C60.6735 84.0117 60.648 83.8815 60.597 83.7627C60.5459 83.6439 60.4757 83.539 60.3864 83.4493C60.2958 83.3595 60.1899 83.2887 60.0673 83.2407C59.9448 83.1914 59.8108 83.1661 59.6654 83.1661C59.5224 83.1661 59.3897 83.1914 59.2672 83.2407C59.1447 83.2887 59.0388 83.3595 58.9469 83.4493C58.8563 83.539 58.7848 83.6439 58.7338 83.7627C58.6827 83.8815 58.6585 84.0117 58.6585 84.1545C58.6585 84.2961 58.6827 84.4275 58.7338 84.5463C58.7848 84.6664 58.8563 84.7713 58.9469 84.8598C59.0388 84.9495 59.1447 85.0177 59.2672 85.067C59.3897 85.1151 59.5224 85.1403 59.6654 85.1403ZM59.6692 85.4677C59.4714 85.4677 59.2889 85.4336 59.1192 85.3691C58.9494 85.3021 58.804 85.2098 58.6802 85.091C58.5564 84.9722 58.4607 84.8345 58.3918 84.6752C58.3228 84.516 58.2871 84.3416 58.2871 84.1545C58.2871 83.9649 58.3228 83.793 58.3918 83.6338C58.4607 83.4745 58.5564 83.3342 58.6802 83.2167C58.804 83.0979 58.9494 83.0056 59.1179 82.9399C59.2851 82.8729 59.4688 82.8413 59.6692 82.8413C59.867 82.8413 60.0495 82.8729 60.2179 82.9374C60.3851 83.0031 60.5306 83.0941 60.6544 83.2129C60.7782 83.3317 60.8739 83.4707 60.9415 83.6313C61.0092 83.7918 61.0436 83.9649 61.0436 84.1545C61.0436 84.3441 61.0092 84.5198 60.9415 84.679C60.8739 84.8383 60.7782 84.976 60.6544 85.0948C60.5306 85.2136 60.3851 85.3059 60.2179 85.3704C60.0495 85.4348 59.867 85.4677 59.6692 85.4677Z" fill="white"/>
<path d="M61.6445 85.4379V82.8697H63.3444L63.3405 83.1894H61.9189L62.007 83.0972L62.0108 85.4379H61.6445Z" fill="white"/>
<path d="M64.6204 85.1403C64.7659 85.1403 64.8999 85.1151 65.0224 85.067C65.1449 85.0177 65.2509 84.9495 65.3415 84.8598C65.4308 84.7713 65.501 84.6664 65.552 84.5463C65.6031 84.4275 65.6286 84.2961 65.6286 84.1545C65.6286 84.0117 65.6031 83.8815 65.552 83.7627C65.501 83.6439 65.4308 83.539 65.3415 83.4493C65.2509 83.3595 65.1449 83.2887 65.0224 83.2407C64.8999 83.1914 64.7659 83.1661 64.6204 83.1661C64.4775 83.1661 64.3448 83.1914 64.2223 83.2407C64.0998 83.2887 63.9938 83.3595 63.902 83.4493C63.8114 83.539 63.7399 83.6439 63.6888 83.7627C63.6378 83.8815 63.6135 84.0117 63.6135 84.1545C63.6135 84.2961 63.6378 84.4275 63.6888 84.5463C63.7399 84.6664 63.8114 84.7713 63.902 84.8598C63.9938 84.9495 64.0998 85.0177 64.2223 85.067C64.3448 85.1151 64.4775 85.1403 64.6204 85.1403ZM64.6243 85.4677C64.4265 85.4677 64.244 85.4336 64.0742 85.3691C63.9045 85.3021 63.759 85.2098 63.6352 85.091C63.5115 84.9722 63.4157 84.8345 63.3468 84.6752C63.2779 84.516 63.2422 84.3416 63.2422 84.1545C63.2422 83.9649 63.2779 83.793 63.3468 83.6338C63.4157 83.4745 63.5115 83.3342 63.6352 83.2167C63.759 83.0979 63.9045 83.0056 64.073 82.9399C64.2401 82.8729 64.4239 82.8413 64.6243 82.8413C64.8221 82.8413 65.0046 82.8729 65.173 82.9374C65.3402 83.0031 65.4857 83.0941 65.6095 83.2129C65.7332 83.3317 65.829 83.4707 65.8966 83.6313C65.9642 83.7918 65.9987 83.9649 65.9987 84.1545C65.9987 84.3441 65.9642 84.5198 65.8966 84.679C65.829 84.8383 65.7332 84.976 65.6095 85.0948C65.4857 85.2136 65.3402 85.3059 65.173 85.3704C65.0046 85.4348 64.8221 85.4677 64.6243 85.4677Z" fill="white"/>
<path d="M69.1329 84.4837V83.0833L69.2286 83.1894H68.4693C68.2472 83.1894 68.0775 83.24 67.9588 83.3411C67.8401 83.4435 67.7802 83.5926 67.7802 83.7911C67.7802 83.9794 67.8363 84.1247 67.9499 84.2271C68.0622 84.3295 68.2281 84.3813 68.4476 84.3813H69.2286L69.1329 84.4837ZM67.4062 85.4379L68.0469 84.5279H68.4246L67.7993 85.4379H67.4062ZM69.1329 85.4379V84.6012L69.2286 84.6897H68.4182C68.2077 84.6897 68.0265 84.6543 67.8759 84.5822C67.724 84.5115 67.6079 84.4091 67.5275 84.2764C67.4471 84.1424 67.4062 83.9832 67.4062 83.7936C67.4062 83.5989 67.4496 83.4321 67.5364 83.2944C67.6219 83.1553 67.7457 83.0504 67.9027 82.9784C68.0609 82.9063 68.2447 82.8697 68.4553 82.8697H69.4953V85.4379H69.1329Z" fill="white"/>
<path d="M70.9246 85.4674C70.7115 85.4674 70.5175 85.4409 70.3401 85.3891C70.164 85.336 70.0198 85.2627 69.9062 85.1704L70.0313 84.8835C70.1347 84.9695 70.2648 85.0352 70.4193 85.082C70.5737 85.1275 70.7421 85.1515 70.9285 85.1515C71.1773 85.1515 71.3623 85.111 71.4836 85.0289C71.6048 84.9467 71.6648 84.8355 71.6648 84.6939C71.6648 84.5954 71.6393 84.5145 71.5882 84.4487C71.5359 84.3856 71.4632 84.3363 71.3713 84.3059C71.2781 84.2756 71.1684 84.2604 71.0433 84.2604H70.432V83.9634H71.0242C71.1926 83.9634 71.3228 83.9318 71.4147 83.8686C71.5078 83.808 71.5538 83.7132 71.5538 83.5893C71.5538 83.4869 71.5257 83.4035 71.4683 83.3403C71.4121 83.2797 71.3368 83.2329 71.2449 83.2038C71.1518 83.1748 71.051 83.1596 70.9387 83.1596C70.8506 83.1596 70.7587 83.1684 70.663 83.1849C70.5686 83.2026 70.4754 83.2266 70.3874 83.2569C70.298 83.2872 70.2151 83.3226 70.1385 83.3618L70.0313 83.0686C70.1653 82.9953 70.3108 82.9397 70.4678 82.9018C70.6234 82.8626 70.7804 82.8449 70.9348 82.8449C71.0663 82.8449 71.1913 82.8588 71.31 82.8866C71.4287 82.9144 71.5333 82.9574 71.6265 83.013C71.7197 83.0699 71.7924 83.1406 71.8447 83.2291C71.8983 83.3176 71.9251 83.4199 71.9251 83.5375C71.9251 83.655 71.8983 83.7612 71.8447 83.8573C71.7924 83.952 71.7158 84.0279 71.6163 84.0835C71.518 84.1404 71.4032 84.1694 71.2717 84.1694L71.2909 84.062C71.4249 84.062 71.5474 84.0873 71.6622 84.1391C71.7758 84.1897 71.8652 84.2642 71.9341 84.3615C72.0017 84.4576 72.0362 84.5764 72.0362 84.7142C72.0362 84.8595 71.9928 84.9884 71.9085 85.1022C71.823 85.2159 71.698 85.3057 71.5333 85.3701C71.37 85.4358 71.1658 85.4674 70.9246 85.4674Z" fill="white"/>
<path d="M75.1542 82.8692H75.5217V85.4374H75.1542V82.8692ZM73.0167 85.1479H73.7058C73.9202 85.1479 74.0848 85.1012 74.2009 85.0051C74.3145 84.9103 74.3719 84.7688 74.3719 84.583C74.3719 84.4022 74.3158 84.2695 74.2022 84.1836C74.0886 84.0976 73.9227 84.0559 73.7058 84.0559H73.0167V85.1479ZM72.6504 85.4386V82.8692H73.0167V83.7653H73.7874C74.0937 83.7653 74.3298 83.8335 74.4944 83.9687C74.6603 84.1052 74.742 84.3075 74.742 84.5767C74.742 84.8585 74.654 85.0734 74.474 85.22C74.2954 85.3653 74.0439 85.4386 73.7211 85.4386H72.6504Z" fill="white"/>
<path d="M78.0707 85.4379L77.1302 84.1727L77.43 83.9895L78.4931 85.4379H78.0707ZM77.4632 84.1942L77.1225 84.1437L78.0515 82.8697H78.4484L77.4632 84.1942ZM76.5776 83.9857H77.4186V84.3092H76.5776V83.9857ZM76.3262 82.8697H76.6886V85.4379H76.3262V82.8697Z" fill="white"/>
<path d="M78.9788 84.7961L79.0783 84.5029H80.5382L80.6454 84.7961H78.9788ZM78.4785 85.4381L79.6526 82.8699H80.0188L81.1967 85.4381H80.8088L79.7598 83.0759H79.9091L78.8601 85.4381H78.4785Z" fill="white"/>
</svg>
