<svg width="158" height="173" viewBox="0 0 158 173" fill="none" xmlns="http://www.w3.org/2000/svg">
<g clip-path="url(#clip0_436_1203)">
<path d="M92.5611 92.2502C91.8506 90.6211 91.2846 89.324 90.7374 88.0687C92.3372 87.0593 96.0573 79.2815 97.7401 77.3422C98.0059 76.713 98.2711 76.0837 98.5176 75.493C106.698 77.7864 115.038 80.1214 123.375 82.4627C123.615 82.53 123.858 82.5972 124.072 82.7151C128.768 85.2899 133.541 87.7334 138.116 90.5059C140.436 91.9114 141.603 94.4159 142.534 96.9553C145.26 104.417 146.296 112.214 147.31 120.027C147.784 123.66 148.705 127.243 149.044 130.882C149.406 134.849 149.319 138.854 149.438 142.841C149.492 144.735 149.447 146.645 149.684 148.521C149.857 149.875 149.53 150.907 148.209 150.977C144.585 151.172 140.935 151.309 137.313 151.117C135.727 151.031 135.97 149.354 136.315 148.274C136.82 146.7 137.492 145.157 138.279 143.7C139.274 141.864 140.016 140.011 139.488 137.912C138.577 134.293 139.837 130.984 140.884 127.639C141.287 126.352 141.808 125.091 142.074 123.774C142.173 123.267 141.705 122.647 141.498 122.078C140.97 122.379 140.119 122.567 139.959 123.002C138.202 127.78 135.976 132.466 136.885 137.813C137.048 138.768 136.789 139.794 136.725 140.787C136.501 140.797 136.277 140.806 136.05 140.816C135.813 138.727 135.547 136.641 135.34 134.552C135.24 133.511 135.266 132.46 135.196 131.418C134.943 127.643 135.269 124.049 137.979 121.037C139.431 119.421 139.118 117.383 139.102 115.405C139.076 112.601 139.169 109.793 139.287 106.992C139.361 105.213 139.649 103.437 139.652 101.66C139.652 101.172 138.977 100.68 138.609 100.188C138.177 100.619 137.416 101.012 137.358 101.488C136.885 105.455 136.517 109.439 136.178 113.422C136.107 114.265 136.446 115.153 136.337 115.983C136.123 117.581 136.203 119.52 135.314 120.663C132.179 124.698 132.067 129.214 132.579 133.865C132.966 137.395 133.727 140.88 134.181 144.406C134.309 145.406 133.897 146.463 133.836 147.502C133.769 148.651 133.817 149.808 133.817 151.124H100.268C100.268 149.239 100.252 147.591 100.271 145.946C100.331 139.548 100.53 133.146 100.408 126.755C100.37 124.586 99.7717 122.353 99.0297 120.29C97.3694 115.677 96.534 110.933 95.872 106.101C95.3347 102.165 94.2691 98.2999 93.4503 94.4607M97.7051 150.75H89.3329C89.3329 145.54 89.1794 140.439 89.3715 135.351C89.7329 125.627 88.4343 116.041 86.6074 106.577C85.7501 102.149 83.3603 98.0126 81.6264 93.7579C81.2552 92.8539 80.7017 92.0235 80.2636 91.2086C82.9029 90.1707 85.4013 89.19 88.0631 88.1422C90.008 91.7389 91.1468 95.8438 91.8986 100.057C93.2905 107.867 94.3714 115.741 97.8169 123.037C98.3515 124.161 98.5113 125.563 98.4794 126.828C98.281 134.763 97.9771 142.694 97.7051 150.75ZM79.6429 95.1379C82.7046 100.191 84.5215 105.286 85.0588 110.796C85.7851 118.258 86.5594 125.717 87.0841 133.191C87.4297 138.091 87.5321 143.02 87.4329 147.926C87.3687 150.923 86.9593 151.098 84.0098 151.229C72.944 151.715 61.875 152.194 50.8061 152.625C47.9719 152.734 45.1279 152.673 42.2901 152.657C41.8774 152.654 41.4648 152.472 41.0457 152.373C41.2952 149.948 41.6311 147.6 41.7527 145.243C41.9062 142.359 41.8263 139.465 41.9574 136.577C42.0118 135.325 42.2517 134.057 42.5844 132.843C43.2594 130.368 44.1328 127.94 44.7438 125.451C44.875 124.921 44.2512 124.205 43.9729 123.573C43.477 124.071 42.7316 124.484 42.5333 125.078C41.999 126.672 41.7015 128.339 41.2408 130.259C39.1422 127.803 38.1441 125.474 39.6029 122.637C40.6874 120.526 40.3771 118.255 39.4493 116.37C35.9207 109.199 34.4075 101.357 31.6083 93.9525C31.4803 93.6109 31.378 93.1829 31.1189 92.9754C30.5782 92.5407 29.8328 91.8222 29.3721 91.95C28.1564 92.2821 28.6747 93.2022 29.0202 94.0295C29.8776 96.0674 30.6742 98.1309 31.4675 100.194C31.6147 100.574 31.6307 101.006 31.4164 101.612C30.2071 100.245 28.9786 98.8879 27.7854 97.5048C27.0592 96.6644 26.4673 95.6874 25.6451 94.9591C25.2165 94.5754 24.4231 94.5916 23.7961 94.4284C23.7993 95.0801 23.5337 95.9523 23.8569 96.3453C25.7379 98.6257 27.6542 100.894 29.7624 102.964C31.4292 104.605 32.9104 106.241 33.3166 108.634C33.419 109.218 33.7325 109.796 34.0556 110.314C36.4997 114.281 37.3123 118.491 36.6789 123.151C36.4229 125.055 36.7621 127.339 37.6354 129.042C39.9516 133.543 39.5837 138.238 39.3789 142.963C39.2798 145.23 38.9951 147.492 38.7455 149.75C38.5376 151.648 37.5746 152.504 35.5176 152.769C29.8808 153.497 24.3144 154.769 18.6711 155.347C15.9199 155.631 13.0567 154.887 10.2607 154.497C9.91835 154.449 9.45445 153.74 9.41289 153.302C8.50115 144.381 7.2183 135.533 9.19213 126.499C10.5646 120.219 10.7597 113.69 11.6299 107.289C12.0746 104.015 12.5512 100.693 13.5333 97.5559C15.2992 91.9338 19.1286 88.1041 24.8614 86.3373C29.6632 84.8552 34.1292 82.7312 38.5344 80.2908C44.987 76.713 51.6988 73.6052 58.3111 70.2927C59.8148 74.3524 61.1744 78.01 62.5277 81.6677C63.1229 83.274 63.6795 84.8937 64.3254 86.478C65.3335 88.9601 67.2304 90.4835 69.8567 90.8797C71.7411 91.1674 73.6896 91.279 75.5928 91.1576C77.2661 91.0522 78.1553 91.6049 78.4947 93.2309M11.3067 95.1859C10.8717 96.5622 10.4686 97.8243 10.0655 99.086L9.69441 99.0828C9.56325 97.6294 9.43528 96.1759 9.2785 94.4352C10.1039 94.7386 10.6478 94.9398 11.3067 95.1859ZM10.2798 88.3371C14.7938 89.0878 15.0465 89.7202 12.4008 93.0296C11.5563 92.7486 10.7053 92.4672 9.6528 92.1158C9.85434 90.9151 10.0591 89.6785 10.2798 88.3371ZM12.4936 82.2745C13.7253 82.8652 14.7042 83.3318 15.7727 83.8427C15.3984 85.0152 15.0657 86.0437 14.6946 87.1969C13.5301 86.6855 12.436 86.2064 11.1436 85.6346C11.5627 84.5997 11.9818 83.5554 12.4936 82.2745ZM17.1707 78.3228C16.9244 79.3227 16.6973 80.2366 16.4285 81.3163C15.4592 80.9169 14.749 80.6229 13.8916 80.2716C14.9441 79.5114 15.2257 77.7958 17.1707 78.3228ZM18.9814 81.0895C19.087 80.6902 19.1766 80.2846 19.2981 79.805C21.4223 80.5302 22.8331 81.6228 22.5004 83.8172C22.4301 84.2806 21.4447 85.0246 21.0257 84.9417C19.5796 84.6476 18.5975 82.5716 18.9814 81.0895ZM21.6367 73.3462C22.574 72.2634 23.361 70.5132 24.4871 70.264C26.205 69.8839 27.843 71.2379 28.5724 72.8738C29.6376 75.2501 30.4214 77.7577 31.1828 80.2554C31.2884 80.6135 30.7125 81.4566 30.2647 81.6547C28.6427 82.3704 26.944 82.9038 25.2005 83.5361C24.4519 80.0161 24.3111 76.4001 21.6207 73.4963C21.6207 73.4645 21.6015 73.3816 21.6367 73.3462ZM31.4836 62.1984C31.6883 62.3486 31.8898 62.4956 32.0914 62.6457C31.3492 64.5684 30.6518 66.5104 29.8488 68.4112C29.4041 69.4591 28.6491 69.7145 27.6542 68.9414C27.1775 68.5739 26.6017 68.344 25.7347 67.868C27.7406 65.8843 28.7355 63.0993 31.4836 62.1984ZM32.84 52.1138C33.515 52.1138 34.2188 51.9605 34.8106 52.1492C35.6072 52.4078 36.263 52.9922 35.6008 53.9509C34.6059 55.3914 33.5598 56.7969 32.5296 58.215C32.3601 58.1159 32.1841 58.0169 32.0114 57.9178C32.2801 56.043 32.5457 54.1678 32.84 52.1138ZM37.7602 45.8593C38.0033 45.5721 38.5024 45.4986 38.8799 45.326C38.8863 45.7285 39.0238 46.1852 38.8799 46.524C38.3104 47.8592 37.6546 49.1625 36.9444 50.654C36.2054 50.239 35.636 49.9195 34.9034 49.5107C35.8887 48.2361 36.7845 47.0161 37.7602 45.8593ZM37.6674 36.7239C38.5184 37.0114 39.2574 37.2574 39.9676 37.4969C39.766 40.7328 38.2337 42.4193 35.6712 41.9881C36.3558 40.1865 36.9796 38.5415 37.6674 36.7239ZM43.9568 31.8335C44.0496 31.9644 44.1424 32.0954 44.232 32.2264C43.3522 33.3635 42.4693 34.5007 41.5543 35.6794C40.8665 35.3536 40.2171 35.0469 39.011 34.4784C40.9177 33.4594 42.4373 32.6448 43.9568 31.8335ZM44.6287 27.5404C45.1885 28.0195 45.6621 28.4284 46.4072 29.0672C45.0988 29.3356 44.1648 29.5272 42.786 29.8083C43.541 28.8788 44.0336 28.2719 44.6287 27.5404ZM50.2333 26.0518C49.5905 26.5629 48.9379 27.0836 48.3589 27.5436C47.7704 26.892 47.2425 26.3106 46.7147 25.726C48.3427 23.966 48.9186 23.9756 50.2333 26.0518ZM55.288 23.0237C54.1779 23.6913 53.3462 24.1896 52.3739 24.7741C51.9929 24.3046 51.6284 23.8574 51.0395 23.1323C52.5562 23.0588 53.567 21.0017 55.288 23.0237ZM56.1327 25.3235C56.4878 26.5629 56.8011 27.6522 57.1341 28.8181C55.2143 29.4793 53.9764 29.2046 53.6788 26.8249C54.4181 26.3744 55.1924 25.8985 56.1327 25.3235ZM55.9599 39.8735C55.608 39.273 55.3167 38.6214 54.888 38.0815C53.5253 36.3694 52.0952 34.7051 50.723 32.9962C50.4541 32.6608 50.3231 32.2136 50.131 31.8207C50.5246 31.6322 50.9151 31.2968 51.3182 31.2809C52.9687 31.2202 54.6227 31.2553 56.5933 31.2553V39.6882C56.3823 39.7489 56.1709 39.8096 55.9599 39.8735ZM52.2236 47.0381C52.0988 45.5528 51.3725 44.1155 50.9151 42.6525C51.0175 42.5791 51.1037 42.4641 51.1934 42.4545C54.5841 42.167 54.7632 42.2724 55.4289 45.6039C55.691 46.9041 55.7902 48.2392 55.9693 49.5999C53.5127 50.0024 52.4058 49.322 52.2236 47.0381ZM52.9655 59.3619V52.2482C55.6242 51.5679 56.0111 51.8328 55.8701 54.452C55.7808 56.091 55.5631 57.7233 55.384 59.4896C54.4562 59.4416 53.7524 59.4035 52.9655 59.3619ZM53.084 68.2292C52.3416 69.5931 51.8299 70.532 51.3214 71.4714C51.1387 71.3661 50.9564 71.2603 50.7742 71.1519C51.3182 70.2286 50.8797 68.6729 53.084 68.2292ZM52.9911 66.0537C52.7959 65.744 52.4345 65.4308 52.4408 65.1242C52.4695 64.0445 52.6231 62.9648 52.7514 61.6651C53.6308 61.8372 54.1555 61.943 54.7924 62.0676C54.4724 63.262 54.2453 64.3323 53.8871 65.3541C53.7811 65.6544 53.2981 65.8238 52.9911 66.0537ZM48.9796 39.4231C48.4581 38.2955 49.0851 36.6409 49.2292 35.2099C49.4658 35.1779 49.709 35.1428 49.9487 35.1076C50.9852 36.5802 52.0252 38.0496 53.0616 39.5221C52.9238 39.7744 52.7864 40.0268 52.6486 40.2792C51.3694 40.0204 49.3024 40.1195 48.9796 39.4231ZM47.927 49.6098C47.4373 49.5394 46.8395 49.1912 46.5769 48.7824C45.6877 47.4186 44.9295 45.9714 43.9953 44.3295C44.28 44.058 44.7086 43.5597 45.2303 43.1828C46.5831 42.1989 48.1605 42.5407 48.7745 44.058C49.4527 45.7316 49.9362 47.4822 50.5821 49.4309C49.3697 49.53 48.6277 49.7088 47.927 49.6098ZM47.7031 59.0199V52.0501C48.3876 52.0022 49.341 51.9318 50.4766 51.852V59.0199H47.7031ZM45.2011 65.974C45.8124 64.6258 46.1899 63.1118 47.0984 62.042C47.62 61.4285 49.0021 61.5436 50.3325 61.2559C50.0897 63.2046 49.9263 64.5236 49.7409 65.974H45.2011ZM43.5218 69.2735C43.6465 68.9894 44.2192 68.7975 44.6127 68.7496C46.0108 68.5837 47.4216 68.4972 49.165 68.3538C48.5348 70.0852 48.4132 72.0433 47.3705 72.9213C45.7738 74.2757 43.541 74.8893 41.5799 75.8188C41.3976 75.6812 41.2184 75.5441 41.0329 75.4065C41.8519 73.356 42.6389 71.2957 43.5218 69.2735ZM45.1724 52.2097V58.9495H40.8473C40.6874 57.0205 40.5306 55.0942 40.3483 52.8806C41.7495 52.6857 43.2435 52.4782 45.1724 52.2097ZM42.3413 46.2269C43.1571 47.674 43.7329 48.6995 44.4175 49.9226C42.8947 50.1462 41.6567 50.3282 40.1371 50.555C40.8601 49.1338 41.4648 47.9488 42.3413 46.2269ZM43.5826 36.692C44.8846 35.1938 46.11 33.782 47.3417 32.3733L47.7637 32.5714C47.1465 34.5358 46.532 36.4971 45.8573 38.6597C44.9645 37.8866 44.328 37.3372 43.5826 36.692ZM44.4847 40.688C43.1315 41.7996 41.9222 42.7963 40.713 43.7929C40.569 43.6395 40.4282 43.4862 40.2875 43.3329C41.0233 41.9529 41.7623 40.5698 42.5941 39.0111C43.2146 39.5637 43.7841 40.0651 44.4847 40.688ZM38.0321 67.0312C38.6687 65.3416 39.1902 63.7729 39.8748 62.2782C40.0667 61.8533 40.7098 61.454 41.196 61.3836C42.159 61.2434 43.1571 61.3424 44.1488 61.3424C43.7873 65.3416 41.9798 67.0568 38.0321 67.0312ZM35.9079 72.6501C36.7781 69.3022 36.7909 69.3058 40.649 69.5133C39.942 71.5418 39.2541 73.5125 38.5472 75.5472H35.3449C35.556 74.4357 35.6808 73.5317 35.9079 72.6501ZM34.4619 59.4098C35.6392 57.9944 36.8132 56.5764 38.2337 54.8674V59.365C36.9444 59.5246 35.8215 59.6622 34.7018 59.8024C34.6219 59.6716 34.5419 59.5407 34.4619 59.4098ZM34.206 69.8548C33.7453 71.925 33.3486 73.7074 32.9487 75.4899C32.7984 75.5504 32.648 75.6113 32.4944 75.6718C32.0658 74.3429 31.3332 73.0302 31.2884 71.6883C31.234 70.0274 32.856 70.1744 34.206 69.8548ZM32.8911 67.9702C33.4638 65.9067 33.6845 64.1404 34.4715 62.6775C34.8618 61.9524 36.2918 61.7861 37.2547 61.3679C37.3475 61.5244 37.4435 61.6808 37.5363 61.8372C36.8644 63.4762 36.3494 65.204 35.4504 66.7117C35.0729 67.3445 33.8957 67.5072 32.8911 67.9702ZM57.7612 66.501C57.214 66.4723 56.7791 66.4531 56.1233 66.4181C56.4492 65.1435 56.7436 63.9997 57.0318 62.8564C57.118 62.8725 57.2078 62.8882 57.2971 62.9012C57.4443 64.0445 57.5884 65.1852 57.7612 66.501ZM58.9574 14.2777C63.0138 24.1928 71.2518 26.6907 80.5033 27.1283C86.2393 27.3998 92.0041 27.0389 97.7563 26.9239C100.581 26.8664 103.086 25.9113 105.194 24.0235C106.519 22.8384 107.808 21.615 109.11 20.4107C109.766 23.2952 108.944 25.8123 106.058 27.074C102.824 28.4891 99.3336 29.441 95.8625 30.1629C93.4149 30.6707 90.811 30.6005 88.2839 30.5334C82.8518 30.3897 77.4133 30.131 71.9812 29.8147C67.9535 29.5847 64.9749 27.3392 62.3423 24.509C60.9571 23.0205 59.5077 21.5894 58.1194 20.1009C57.8155 19.7751 57.4026 19.2385 57.486 18.9158C57.8923 17.3474 58.4489 15.8206 58.9574 14.2777ZM62.4671 9.7802C64.3608 8.23736 66.242 6.44856 68.4459 5.55734C79.4669 1.1109 90.5296 1.20992 101.256 6.46133C103.592 7.60488 105.549 9.76738 107.28 11.799C109.225 14.0892 108.815 16.8395 106.675 18.9478C105.402 20.2031 104.068 21.4074 102.712 22.5796C100.946 24.1097 98.7864 24.592 96.5084 24.6432C94.8993 24.6783 93.2906 24.6304 91.6814 24.6272C90.0722 24.624 88.4662 24.6272 86.8601 24.6272C86.844 24.7837 86.8314 24.9402 86.8184 25.0999C82.1574 24.6879 77.3747 24.7933 72.8673 23.7392C67.4701 22.4742 63.4425 19.0595 61.6766 13.4728C61.2031 11.981 61.344 10.6937 62.4671 9.7802ZM109.929 29.2781C109.769 30.0766 109.606 30.8752 109.359 32.1082C108.611 31.2521 108.23 30.8145 107.718 30.2331C108.339 29.8115 108.86 29.4602 109.382 29.1088C109.564 29.1663 109.746 29.2206 109.929 29.2781ZM109.311 39.5924C108.681 38.5351 108.131 37.6088 107.581 36.6792C107.642 36.5163 107.702 36.3534 107.766 36.1905C108.227 36.3374 108.848 36.3502 109.113 36.66C109.794 37.465 111.033 38.3147 109.311 39.5924ZM111.391 50.3219C111.567 50.3094 111.74 50.2995 111.916 50.2901C112.024 52.0788 112.133 53.8707 112.251 55.7876C109.827 55.1104 109.705 53.7273 111.391 50.3219ZM111.573 65.9354C113.192 66.8363 112.927 68.772 110.527 72.8447C109.977 72.3624 109.459 71.912 108.966 71.4808C109.868 69.5612 110.719 67.7501 111.573 65.9354ZM104.017 67.5933C105.274 65.9099 106.474 64.3098 107.664 62.7188C110.021 64.0508 109.859 65.4787 106.925 69.7145C105.997 69.0373 105.073 68.3632 104.017 67.5933ZM100.197 70.9188C102.948 69.0597 102.958 69.0566 105.236 71.5673C103.524 74.8507 101.336 74.8507 98.54 71.9443C99.1801 71.5512 99.7012 71.2572 100.197 70.9188ZM59.5813 62.0738C60.4131 63.1629 61.0307 63.9136 61.5806 64.706C62.358 65.8175 63.0717 65.7664 63.9385 64.7791C64.5269 64.1086 68.3243 60.892 71.9875 59.4224C75.8904 58.7644 79.7452 59.0777 83.5107 60.2403C86.5468 61.4571 88.4213 66.9895 88.5492 67.3633C93.1976 65.9901 94.845 61.125 98.6073 58.7227C98.9112 58.5282 99.1478 58.2342 99.826 58.1769C98.8282 60.6715 97.8075 63.1598 96.8415 65.6674C95.8975 68.1203 94.7139 70.5356 94.1735 73.0782C93.1146 78.0194 90.7823 82.089 87.0105 85.4239C85.3789 86.868 83.565 87.8132 81.3831 87.9727C77.9924 88.2219 74.6044 88.4998 71.2101 88.6437C69.3289 88.7266 67.8445 87.893 67.0706 86.0917C65.6787 82.8558 64.4214 79.4984 62.6718 76.4992C61.4208 74.3492 61.8782 72.1388 61.0819 70.0466C60.2659 67.8935 60.0518 65.5141 59.5876 63.2302C59.5365 62.9971 59.5813 62.7412 59.5813 62.0738ZM60.7075 29.0161C60.234 28.9682 59.5495 28.5785 59.4085 28.1824C58.9449 26.8855 58.6854 25.512 58.6854 23.9628C60.0549 25.4577 61.4239 26.9494 62.9757 28.6424C62.0285 28.8181 61.3472 29.0832 60.7075 29.0161ZM105.905 61.3904C104.772 62.92 103.851 64.447 102.619 65.6544C102.203 66.0569 100.987 65.645 100.012 65.597C100.907 63.2651 101.643 61.3549 102.456 59.2341C103.572 59.9338 104.599 60.5756 105.905 61.3904ZM106.717 59.0136C105.488 58.2728 104.5 57.6722 103.604 57.129C104.545 56.4581 105.457 55.8095 106.455 55.0974C108.144 56.1165 106.8 57.4835 106.717 59.0136ZM104.698 48.894C105.194 48.0698 106.864 47.9488 108.102 47.476C107.142 48.6224 106.177 49.5457 105.505 50.6478C104.864 51.6956 104.532 52.9286 104.065 54.0786C103.812 53.9984 103.56 53.9155 103.31 53.8326C103.732 52.1649 103.847 50.3094 104.698 48.894ZM106.413 34.9447C105.533 33.9225 105.018 33.3284 104.276 32.466C104.721 32.1625 105.111 31.8973 105.684 31.5045C106.132 32.1274 106.656 32.6576 106.906 33.2965C107.034 33.6223 106.675 34.1366 106.413 34.9447ZM104.308 42.9464V37.4235C105.159 38.7204 105.703 39.5445 106.291 40.4421C105.7 41.1863 105.114 41.9306 104.308 42.9464ZM109.475 57.7744C111.887 58.3458 110.831 59.8217 110.38 61.2528C107.958 60.5083 109.328 59.0105 109.475 57.7744ZM106.199 45.7191C106.103 45.62 106.01 45.521 105.914 45.425C106.467 44.4701 107.021 43.515 107.696 42.3522C108.24 43.1125 108.652 43.6842 109.212 44.4636C108.093 44.9303 107.142 45.3229 106.199 45.7191ZM87.0105 32.9323H91.5274C91.5754 33.4115 91.6266 33.9417 91.7101 34.7754C90.2257 34.9096 88.8082 35.0405 87.212 35.1875C87.1384 34.373 87.0841 33.7309 87.0105 32.9323ZM80.1644 32.8876H84.4834C84.5952 33.6319 84.7137 34.3921 84.8797 35.5101C83.341 35.59 81.9365 35.6602 80.5101 35.7337C80.3785 34.6604 80.2762 33.8203 80.1644 32.8876ZM71.8465 32.5777C76.0313 31.8015 77.7298 32.6001 77.9057 35.6443C75.6601 34.5071 73.7533 33.5424 71.8465 32.5777ZM86.4476 37.8771C91.4475 37.2861 95.9294 35.2418 100.639 33.8363C100.981 33.7341 101.317 33.6255 102.165 33.3604C101.758 37.7141 101.461 41.6942 100.987 45.6487C100.767 47.514 100.386 49.4018 99.7654 51.1748C98.5019 54.8101 96.7454 58.1383 93.3574 60.3967C92.11 61.2272 91.1854 62.5337 89.9025 63.8339C89.0609 62.6932 88.2166 61.7511 87.599 60.6809C85.8843 57.7202 82.9604 57.1545 79.979 56.8892C77.7042 56.688 75.3786 56.6593 73.1168 56.9148C71.7155 57.0748 70.2822 57.7327 69.0636 58.4866C67.0096 59.7545 65.1158 61.272 63.1547 62.687C62.8926 62.6072 62.6269 62.5274 62.3647 62.4476C61.7121 60.0104 60.6882 57.6018 60.4867 55.1292C60.058 49.9257 59.8502 44.6809 59.9781 39.4646C60.0324 37.2063 61.0146 34.9223 61.8207 32.7407C62.5596 30.7283 65.2276 30.2268 66.9584 31.6003C67.5855 32.1018 68.2125 32.6065 68.8077 33.1431C73.8812 37.7174 79.8381 38.6597 86.4476 37.8771ZM111.941 40.5155C114.456 43.4351 114.456 43.4351 112.501 45.374C112.002 43.7801 109.648 42.5599 111.941 40.5155ZM115.591 45.4891C115.889 46.6231 116.026 47.6803 116.446 48.6161C117.136 50.1592 116.634 51.0377 115.153 51.571C113.489 48.4212 113.515 47.9519 115.591 45.4891ZM117.997 52.5996C118.56 54.4744 119.027 56.0144 119.488 57.557C119.353 57.6368 119.216 57.7202 119.081 57.7999C118.051 56.6499 117.022 55.4998 115.834 54.1741C116.596 53.6184 117.162 53.2065 117.997 52.5996ZM118.573 69.6316C115.108 65.8175 115.361 67.2966 117.088 63.1598C120.463 64.1628 120.764 65.4662 118.573 69.6316ZM121.094 70.0852C121.689 68.7913 121.887 67.3122 122.262 65.8942C124.427 66.8555 124.382 70.216 122.265 73.8383C120.716 72.9343 120.297 71.8165 121.094 70.0852ZM126.196 69.8647C127.578 71.008 128.858 72.072 130.266 73.2377C128.753 75.212 126.753 74.4738 124.827 74.6114C125.301 72.976 125.72 71.5256 126.196 69.8647ZM113.333 72.4458C113.992 71.5256 114.264 70.3245 114.712 69.248C118.208 71.5929 118.035 74.6208 114.244 77.154C112.402 75.7964 111.96 74.3524 113.333 72.4458ZM114.529 55.6661C115.217 56.7171 115.815 57.6399 116.413 58.5601C116.212 58.6752 116.014 58.79 115.812 58.9052C114.676 58.2405 113.496 57.5956 114.529 55.6661ZM113.742 64.1342C111.557 63.0191 113.179 61.6328 113.186 60.3039C115.246 61.3581 115.246 61.3581 113.742 64.1342ZM135.148 82.5013C134.799 83.2775 134.367 84.2452 133.804 85.5005C132.124 84.3536 130.598 83.3156 128.855 82.1244C131.046 82.2552 132.959 82.3704 135.148 82.5013ZM132.22 74.6818C133.331 75.5983 134.328 76.4225 135.301 77.2275C133.823 80.3832 133.151 80.6485 129.984 79.7575C129.002 79.4827 127.674 79.1278 126.939 79.5563C124.936 80.7188 123.189 79.9775 121.34 79.4348C120.111 79.0735 118.88 78.7509 117.136 78.2686C120.473 76.9908 123.426 76.7932 126.404 76.8407C128.58 76.873 130.618 76.6076 132.22 74.6818ZM138.18 80.4665C140.32 81.8048 140.532 83.9256 138.654 87.4394C137.806 87.0401 137.032 86.6699 136.258 86.3024C136.91 84.3218 137.55 82.3798 138.18 80.4665ZM142.09 85.2003C144.742 87.0114 143.587 89.1071 142.332 91.6017C141.766 90.4548 140.928 89.4966 140.912 88.5222C140.893 87.465 141.635 86.3884 142.09 85.2003ZM145.199 91.2727C146.693 95.3167 148.091 99.332 147.566 103.689C147.403 103.711 147.24 103.737 147.08 103.759C146.12 100.862 144.994 98.0063 144.297 95.0483C144.028 93.9049 144.735 92.5312 145.199 91.2727ZM151.399 131.578C151.3 129.837 150.516 128.147 150.273 126.403C149.646 121.954 149.175 117.482 148.584 113.026C148.28 110.735 147.611 108.493 149.179 106.305C149.697 105.577 149.793 104.423 149.793 103.465C149.783 95.5466 148.603 88.0207 142.541 82.1082C139.239 78.8885 136.034 75.5759 132.796 72.292C132.07 71.5543 131.388 70.7749 130.707 69.9955C129.469 68.5775 128.5 66.696 126.951 65.827C124.683 64.5523 123.551 62.7156 122.735 60.5052C122.207 59.0647 121.836 57.5664 121.43 56.0843C120.204 51.5934 118.8 47.1403 117.828 42.5982C116.628 36.9954 114.868 31.6897 111.337 26.9335C113.019 23.4038 112.856 20.021 110.754 16.7341C110.569 16.4466 110.489 16.0506 110.476 15.7024C110.223 10.3424 107.331 6.6402 102.692 4.44253C99.6119 2.98594 96.2589 1.95099 92.9193 1.20353C84.803 -0.617211 76.7252 -0.572491 68.9101 2.73359C65.7685 4.06241 62.7131 5.56693 60.5123 8.28845C59.7155 9.27868 59.0952 10.4222 58.465 11.537C57.4219 13.3833 56.315 15.2105 55.4864 17.1526C55.077 18.1045 54.8081 18.7561 53.7174 19.1873C51.158 20.1967 48.2085 20.9602 46.3116 22.7586C40.9945 27.8023 36.2086 33.338 33.6685 40.4644C31.989 45.1727 30.3319 49.811 30.0503 54.8899C29.9288 57.1353 29.3657 59.6523 28.1405 61.4764C25.7827 64.9839 22.8875 68.1495 20.0723 71.3307C18.6231 72.9693 16.8796 74.3559 15.2577 75.8381C14.1732 76.8219 12.8168 77.6044 12.0009 78.7701C6.46008 86.6824 5.79787 95.2334 8.93619 104.216C9.09617 104.663 9.30089 105.162 9.25291 105.608C8.42754 113.192 7.9157 120.832 6.61687 128.336C5.0717 137.254 6.09861 145.997 7.21188 154.791C7.35265 155.883 7.83571 156.87 9.14096 156.918C13.0151 157.065 16.9148 157.465 20.7633 157.183C25.1173 156.867 29.4041 155.688 33.7613 155.318C37.6546 154.989 41.6087 155.385 45.5243 155.212C49.9712 155.018 54.3988 154.389 58.8425 154.248C62.6044 154.13 66.3857 154.644 70.1449 154.519C76.5717 154.305 82.986 153.65 89.4097 153.481C94.7233 153.341 100.05 153.814 105.367 153.702C118.464 153.43 131.549 153.606 144.636 154.034C145.983 154.078 147.368 153.961 148.696 153.711C151.297 153.222 152.17 152.156 152.093 149.489C151.92 143.518 151.741 137.542 151.399 131.578Z" fill="white"/>
<path d="M107.192 73.333C106.629 73.7673 106.21 74.09 105.791 74.4127C105.874 74.5978 105.957 74.7802 106.041 74.9653C106.904 75.0962 107.768 75.2306 108.631 75.3615C108.686 75.176 108.74 74.9909 108.795 74.8058C108.324 74.371 107.851 73.9367 107.192 73.333Z" fill="white"/>
<path d="M50.3446 134.152C51.0579 134.152 51.6019 134.184 52.1392 134.145C59.9579 133.612 67.7668 132.903 75.595 132.58C81.1007 132.357 80.7681 132.405 80.8929 127.559C80.9665 124.626 80.2659 123.799 77.3002 123.79C73.4741 123.78 69.6449 123.725 65.8219 123.786C61.2533 123.86 56.6853 123.997 52.1199 124.224C51.5121 124.253 50.447 124.952 50.4245 125.383C50.271 128.258 50.3446 131.146 50.3446 134.152ZM66.0715 121.598C70.5789 121.598 75.0864 121.585 79.5939 121.605C82.7256 121.618 83.7082 122.393 83.631 125.47C83.5673 127.961 83.0107 130.44 82.6332 132.922C82.4411 134.2 81.5644 134.877 80.3296 134.925C78.7303 134.989 77.118 134.797 75.5214 134.899C68.6784 135.34 61.8423 135.867 55.0025 136.314C52.9803 136.445 50.9461 136.477 48.924 136.388C48.5626 136.375 47.9481 135.557 47.9418 135.104C47.9006 131.663 48.0796 128.217 47.9773 124.78C47.9293 123.173 48.4953 122.243 49.986 122.016C51.8066 121.742 53.6586 121.567 55.5016 121.528C59.0238 121.454 62.5461 121.506 66.0715 121.506C66.0715 121.537 66.0715 121.567 66.0715 121.598Z" fill="white"/>
<path d="M72.6214 17.7613C73.9555 18.1542 75.0561 18.4769 76.4444 18.8889C75.3119 16.4133 75.197 16.3814 72.6214 17.7613ZM87.0847 7.53005C87.1009 7.37031 87.1166 7.21062 87.1296 7.04771C85.0532 6.95825 82.9803 6.85288 80.9039 6.80493C80.7347 6.80174 80.5587 7.18826 80.3859 7.39268C80.6835 7.59714 80.9937 7.99002 81.2782 7.97406C83.2169 7.87502 85.1524 7.68978 87.0847 7.53005ZM102.93 16.1322C102.908 14.1614 101.295 11.9445 98.9724 10.8393C98.9724 11.1747 98.8414 11.5932 98.9949 11.7657C100.294 13.2638 101.644 14.7204 102.93 16.1322ZM98.7583 14.9535C98.349 16.7967 98.0675 18.0712 97.712 19.6747C98.9949 19.1924 99.9195 18.8442 101.068 18.413C100.294 17.2535 99.67 16.3207 98.7583 14.9535ZM91.5635 16.3622C91.8481 20.2018 92.437 20.7001 95.2711 19.5086C94.0363 18.4609 92.9038 17.4994 91.5635 16.3622ZM74.6368 9.49772C75.8398 9.16552 76.953 8.86206 78.0379 8.565C78.1559 7.23617 77.708 6.64842 76.4574 6.90716C75.1746 7.16908 73.9653 7.50132 74.6368 9.49772ZM89.9799 7.40545C89.9799 7.53323 89.983 7.66101 89.983 7.78879C92.0752 8.64487 94.1642 9.5009 96.2788 10.3666C96.6787 9.29648 96.3973 8.6065 95.2074 8.3829C93.464 8.05711 91.7202 7.73128 89.9799 7.40545ZM78.7381 11.047C77.5064 11.3472 76.4094 11.6187 75.3057 11.8902C76.0445 15.0334 77.8714 13.0721 79.4069 13.1392C79.1767 12.4237 78.9976 11.8551 78.7381 11.047ZM72.8104 12.6089C71.1213 13.5353 69.5602 14.3946 67.9991 15.2538C68.0727 15.4551 68.1458 15.6563 68.2194 15.8575C70.2865 16.8063 71.7516 14.7491 73.7925 14.6182C73.4276 13.8739 73.1749 13.3532 72.8104 12.6089ZM82.737 19.5757C82.2446 18.7132 81.803 17.937 81.355 17.164C80.2836 15.3145 79.8962 15.2219 77.8938 16.3239C79.3782 19.7481 79.3782 19.7481 82.737 19.5757ZM81.2302 10.5071L80.9393 11.1012C81.3904 11.6539 81.8285 12.6664 82.2958 12.6792C84.1034 12.7304 85.9204 12.4652 87.859 12.3055C87.6799 11.5389 87.5327 10.9064 87.3406 10.0823C85.2359 10.2292 83.233 10.3666 81.2302 10.5071ZM90.0791 10.3921C90.172 13.4139 90.6999 13.9378 96.0072 16.5762C96.036 15.2442 97.3157 13.7301 95.5463 12.7655C93.8509 11.8391 91.9953 11.2067 90.0791 10.3921ZM89.545 19.8887C89.4839 15.7809 87.798 14.5192 83.3641 15.257C84.8198 19.86 85.7058 20.5244 89.545 19.8887ZM87.9071 22.4186C82.0655 22.7029 75.763 21.3677 69.5921 19.2499C68.8434 18.9911 68.0947 18.6876 67.4039 18.3075C64.4925 16.704 63.808 14.1039 65.9388 11.5517C69.3456 7.46936 73.415 4.41882 79.1192 4.34855C84.7816 4.28147 90.3574 4.91712 95.8344 6.31941C100.329 7.46936 103.404 10.3314 105.217 14.5383C106.302 17.049 105.78 18.413 103.41 19.7322C98.7902 22.294 93.7486 22.5336 87.9071 22.4186Z" fill="white"/>
<path d="M1.25405 169.873L1.50358 169.132H5.16337L5.4321 169.873H1.25405ZM0 171.496L2.94318 165.005H3.86133L6.81411 171.496H5.84156L3.21191 165.525H3.5862L0.956533 171.496H0Z" fill="white"/>
<path d="M12.3107 171.496L9.95294 168.298L10.7047 167.835L13.3696 171.496H12.3107ZM10.7879 168.352L9.93373 168.225L12.2627 165.005H13.2576L10.7879 168.352ZM8.56771 167.825H10.6759V168.643H8.56771V167.825ZM7.9375 165.005H8.84605V171.496H7.9375V165.005Z" fill="white"/>
<path d="M14.5861 169.873L14.8356 169.132H18.4954L18.7641 169.873H14.5861ZM13.332 171.496L16.2752 165.005H17.1933L20.1461 171.496H19.1736L16.5439 165.525H16.9182L14.2886 171.496H13.332Z" fill="white"/>
<path d="M21.6177 170.855L20.6164 170.685C20.8563 170.705 21.0546 170.625 21.2146 170.443C21.3713 170.257 21.4961 170.002 21.5857 169.673C21.6752 169.341 21.7424 168.954 21.784 168.514C21.8288 168.073 21.8576 167.597 21.8768 167.089L21.944 165.003H26.5123V171.056H25.5909V165.811H22.7406L22.6926 167.175C22.6766 167.632 22.6478 168.069 22.6062 168.491C22.5646 168.913 22.5102 169.29 22.4334 169.625C22.3598 169.963 22.2575 170.242 22.1231 170.456C21.9919 170.673 21.8224 170.804 21.6177 170.855ZM20.3828 172.915L20.3924 170.685H27.4688V172.915H26.6051V171.494H21.2562L21.2466 172.915H20.3828Z" fill="white"/>
<path d="M29.5848 167.804H32.9278V168.593H29.5848V167.804ZM28.7402 171.497V165.003H33.3245V165.811H29.6679V170.689H33.4557V171.497H28.7402Z" fill="white"/>
<path d="M34.9141 171.496V165.005H35.6755L38.5899 169.911H38.1804L41.0596 165.005H41.821L41.8306 171.496H40.9412L40.9316 166.404H41.146L38.5802 170.707H38.1548L35.5731 166.404H35.8066V171.496H34.9141Z" fill="white"/>
<path d="M43.8555 171.496V165.005H44.7736V170.01L48.6187 165.005H49.4729V171.496H48.5644V166.5L44.7096 171.496H43.8555Z" fill="white"/>
<path d="M55.1663 169.084V165.544L55.406 165.813H53.5028C52.9462 165.813 52.5207 165.941 52.2231 166.196C51.9255 166.455 51.7751 166.832 51.7751 167.333C51.7751 167.809 51.9161 168.177 52.2006 168.435C52.4821 168.694 52.8982 168.825 53.4485 168.825H55.406L55.1663 169.084ZM50.8379 171.496L52.4439 169.195H53.3906L51.8231 171.496H50.8379ZM55.1663 171.496V169.381L55.406 169.605H53.3749C52.847 169.605 52.3928 169.515 52.0153 169.333C51.6342 169.154 51.3433 168.895 51.1418 168.56C50.9402 168.222 50.8379 167.819 50.8379 167.34C50.8379 166.848 50.9465 166.426 51.1642 166.078C51.3783 165.726 51.6889 165.462 52.0821 165.28C52.4789 165.097 52.9395 165.005 53.4673 165.005H56.0748V171.496H55.1663Z" fill="white"/>
<path d="M60.9494 169.873L61.1986 169.132H64.8586L65.1275 169.873H60.9494ZM59.6953 171.496L62.6385 165.005H63.5564L66.5091 171.496H65.5368L62.9069 165.525H63.2813L60.6518 171.496H59.6953Z" fill="white"/>
<path d="M68.5641 169.187L68.1484 168.721H70.1445C70.7366 168.721 71.1877 168.596 71.4947 168.341C71.8017 168.088 71.9552 167.731 71.9552 167.268C71.9552 166.804 71.8017 166.447 71.4947 166.194C71.1877 165.939 70.7366 165.811 70.1445 165.811H68.1484L68.5641 165.348V169.187ZM67.6367 171.497V165.003H70.1701C70.7397 165.003 71.2258 165.095 71.6289 165.274C72.032 165.453 72.3426 165.712 72.5567 166.053C72.7744 166.392 72.883 166.798 72.883 167.268C72.883 167.737 72.7744 168.142 72.5567 168.478C72.3426 168.817 72.032 169.076 71.6289 169.254C71.2258 169.44 70.7397 169.529 70.1701 169.529H68.1484L68.5641 169.094V171.497H67.6367Z" fill="white"/>
<path d="M74.1994 169.873L74.449 169.132H78.1086L78.3775 169.873H74.1994ZM72.9453 171.496L75.8885 165.005H76.8069L79.7595 171.496H78.7868L76.1574 165.525H76.5317L73.9018 171.496H72.9453Z" fill="white"/>
<path d="M81.8051 170.762H83.6347C84.1724 170.762 84.5818 170.663 84.8569 170.456C85.1321 170.254 85.2694 169.954 85.2694 169.558C85.2694 168.772 84.7258 168.379 83.6347 168.379H81.8051V170.762ZM80.8867 171.494V165.003H85.791V165.792H81.8051V167.648H83.8299C84.6042 167.648 85.1927 167.807 85.5957 168.13C85.9957 168.449 86.1972 168.919 86.1972 169.529C86.1972 170.162 85.98 170.647 85.5414 170.986C85.1065 171.328 84.4826 171.494 83.6701 171.494H80.8867Z" fill="white"/>
<path d="M90.5786 171.57C90.0826 171.57 89.6284 171.49 89.2091 171.324C88.7904 171.162 88.4286 170.928 88.1215 170.628C87.8177 170.327 87.5775 169.98 87.4052 169.577C87.2324 169.175 87.1426 168.731 87.1426 168.251C87.1426 167.769 87.2324 167.328 87.4052 166.926C87.5775 166.523 87.8177 166.175 88.1278 165.872C88.4385 165.571 88.7998 165.341 89.219 165.175C89.6378 165.012 90.0921 164.933 90.5881 164.933C91.0903 164.933 91.5545 165.016 91.9764 165.185C92.4019 165.357 92.7601 165.61 93.0577 165.942L92.4531 166.526C92.2067 166.268 91.9284 166.073 91.6182 165.945C91.3112 165.82 90.9786 165.757 90.6267 165.757C90.2586 165.757 89.9197 165.817 89.6091 165.942C89.2958 166.063 89.0269 166.239 88.7966 166.46C88.5695 166.683 88.3904 166.948 88.2625 167.252C88.1346 167.558 88.0735 167.894 88.0735 168.251C88.0735 168.609 88.1346 168.941 88.2625 169.245C88.3904 169.552 88.5695 169.817 88.7966 170.04C89.0269 170.264 89.2958 170.436 89.6091 170.561C89.9197 170.682 90.2586 170.743 90.6267 170.743C90.9786 170.743 91.3112 170.682 91.6182 170.555C91.9284 170.43 92.2067 170.232 92.4531 169.967L93.0577 170.551C92.7601 170.884 92.4019 171.136 91.9764 171.312C91.5545 171.484 91.0872 171.57 90.5786 171.57Z" fill="white"/>
<path d="M98.7131 171.496L96.3552 168.298L97.1071 167.835L99.772 171.496H98.7131ZM97.1901 168.352L96.3359 168.225L98.6651 165.005H99.6598L97.1901 168.352ZM94.97 167.825H97.0784V168.643H94.97V167.825ZM94.3398 165.005H95.2483V171.496H94.3398V165.005Z" fill="white"/>
<path d="M103.623 170.743C103.987 170.743 104.324 170.679 104.631 170.558C104.938 170.433 105.203 170.261 105.43 170.034C105.654 169.81 105.83 169.545 105.958 169.241C106.086 168.941 106.15 168.609 106.15 168.251C106.15 167.89 106.086 167.561 105.958 167.261C105.83 166.961 105.654 166.696 105.43 166.469C105.203 166.242 104.938 166.063 104.631 165.942C104.324 165.817 103.987 165.753 103.623 165.753C103.265 165.753 102.932 165.817 102.625 165.942C102.318 166.063 102.052 166.242 101.822 166.469C101.594 166.696 101.415 166.961 101.287 167.261C101.16 167.561 101.099 167.89 101.099 168.251C101.099 168.609 101.16 168.941 101.287 169.241C101.415 169.545 101.594 169.81 101.822 170.034C102.052 170.261 102.318 170.433 102.625 170.558C102.932 170.679 103.265 170.743 103.623 170.743ZM103.632 171.57C103.137 171.57 102.679 171.484 102.254 171.321C101.828 171.152 101.463 170.919 101.153 170.618C100.843 170.318 100.603 169.97 100.43 169.567C100.257 169.165 100.168 168.724 100.168 168.251C100.168 167.772 100.257 167.338 100.43 166.935C100.603 166.533 100.843 166.178 101.153 165.881C101.463 165.581 101.828 165.348 102.25 165.182C102.669 165.012 103.13 164.933 103.632 164.933C104.128 164.933 104.586 165.012 105.008 165.175C105.427 165.341 105.792 165.571 106.102 165.872C106.413 166.172 106.652 166.523 106.822 166.929C106.992 167.334 107.078 167.772 107.078 168.251C107.078 168.731 106.992 169.175 106.822 169.577C106.652 169.98 106.413 170.327 106.102 170.628C105.792 170.928 105.427 171.162 105.008 171.324C104.586 171.487 104.128 171.57 103.632 171.57Z" fill="white"/>
<path d="M108.582 171.496V165.005H112.844L112.834 165.813H109.27L109.491 165.58L109.5 171.496H108.582Z" fill="white"/>
<path d="M116.049 170.744C116.414 170.744 116.749 170.68 117.056 170.559C117.363 170.434 117.629 170.262 117.856 170.035C118.08 169.811 118.256 169.546 118.384 169.242C118.512 168.942 118.576 168.61 118.576 168.252C118.576 167.891 118.512 167.562 118.384 167.262C118.256 166.962 118.08 166.697 117.856 166.47C117.629 166.243 117.363 166.064 117.056 165.943C116.749 165.818 116.414 165.754 116.049 165.754C115.69 165.754 115.358 165.818 115.05 165.943C114.743 166.064 114.478 166.243 114.247 166.47C114.02 166.697 113.841 166.962 113.713 167.262C113.585 167.562 113.525 167.891 113.525 168.252C113.525 168.61 113.585 168.942 113.713 169.242C113.841 169.546 114.02 169.811 114.247 170.035C114.478 170.262 114.743 170.434 115.05 170.559C115.358 170.68 115.69 170.744 116.049 170.744ZM116.058 171.571C115.563 171.571 115.105 171.485 114.68 171.322C114.254 171.153 113.889 170.92 113.579 170.619C113.269 170.319 113.029 169.971 112.856 169.568C112.683 169.166 112.594 168.725 112.594 168.252C112.594 167.773 112.683 167.339 112.856 166.936C113.029 166.534 113.269 166.179 113.579 165.882C113.889 165.582 114.254 165.349 114.676 165.183C115.095 165.013 115.556 164.934 116.058 164.934C116.554 164.934 117.011 165.013 117.434 165.176C117.853 165.342 118.218 165.572 118.528 165.873C118.838 166.173 119.078 166.524 119.248 166.93C119.417 167.335 119.504 167.773 119.504 168.252C119.504 168.732 119.417 169.176 119.248 169.578C119.078 169.981 118.838 170.328 118.528 170.629C118.218 170.929 117.853 171.162 117.434 171.325C117.011 171.488 116.554 171.571 116.058 171.571Z" fill="white"/>
<path d="M127.358 169.084V165.544L127.598 165.813H125.694C125.138 165.813 124.712 165.941 124.414 166.196C124.117 166.455 123.967 166.832 123.967 167.333C123.967 167.809 124.107 168.177 124.392 168.435C124.674 168.694 125.09 168.825 125.64 168.825H127.598L127.358 169.084ZM123.029 171.496L124.635 169.195H125.582L124.015 171.496H123.029ZM127.358 171.496V169.381L127.598 169.605H125.566C125.038 169.605 124.584 169.515 124.207 169.333C123.826 169.154 123.535 168.895 123.333 168.56C123.132 168.222 123.029 167.819 123.029 167.34C123.029 166.848 123.138 166.426 123.356 166.078C123.57 165.726 123.88 165.462 124.274 165.28C124.671 165.097 125.131 165.005 125.659 165.005H128.266V171.496H127.358Z" fill="white"/>
<path d="M131.844 171.572C131.31 171.572 130.823 171.504 130.379 171.373C129.937 171.239 129.576 171.054 129.291 170.821L129.604 170.096C129.863 170.313 130.19 170.479 130.577 170.597C130.964 170.712 131.386 170.773 131.853 170.773C132.477 170.773 132.941 170.671 133.245 170.463C133.549 170.256 133.699 169.974 133.699 169.617C133.699 169.367 133.635 169.163 133.507 168.997C133.376 168.837 133.194 168.713 132.963 168.636C132.73 168.559 132.455 168.521 132.141 168.521H130.609V167.771H132.093C132.516 167.771 132.842 167.69 133.072 167.531C133.306 167.377 133.421 167.138 133.421 166.825C133.421 166.566 133.351 166.355 133.206 166.196C133.066 166.042 132.877 165.924 132.647 165.85C132.413 165.777 132.161 165.739 131.879 165.739C131.658 165.739 131.428 165.761 131.188 165.803C130.951 165.847 130.718 165.908 130.497 165.985C130.273 166.062 130.065 166.151 129.873 166.25L129.604 165.509C129.94 165.323 130.305 165.183 130.698 165.087C131.089 164.988 131.482 164.943 131.869 164.943C132.199 164.943 132.513 164.979 132.81 165.049C133.107 165.119 133.37 165.228 133.603 165.368C133.837 165.512 134.019 165.691 134.15 165.915C134.285 166.138 134.352 166.397 134.352 166.694C134.352 166.991 134.285 167.259 134.15 167.502C134.019 167.742 133.827 167.933 133.578 168.074C133.331 168.217 133.044 168.291 132.714 168.291L132.762 168.02C133.098 168.02 133.405 168.083 133.693 168.214C133.978 168.342 134.202 168.531 134.374 168.777C134.544 169.019 134.63 169.319 134.63 169.668C134.63 170.035 134.521 170.361 134.31 170.648C134.096 170.936 133.782 171.163 133.37 171.326C132.96 171.492 132.448 171.572 131.844 171.572Z" fill="white"/>
<path d="M142.448 165.003H143.37V171.494H142.448V165.003ZM137.09 170.762H138.817C139.355 170.762 139.767 170.644 140.059 170.401C140.343 170.162 140.487 169.804 140.487 169.334C140.487 168.878 140.346 168.542 140.062 168.325C139.777 168.108 139.361 168.002 138.817 168.002H137.09V170.762ZM136.172 171.497V165.003H137.09V167.268H139.022C139.79 167.268 140.382 167.44 140.794 167.782C141.21 168.127 141.415 168.638 141.415 169.318C141.415 170.031 141.194 170.573 140.743 170.944C140.296 171.312 139.665 171.497 138.856 171.497H136.172Z" fill="white"/>
<path d="M149.764 171.496L147.406 168.298L148.158 167.835L150.823 171.496H149.764ZM148.241 168.352L147.387 168.225L149.716 165.005H150.711L148.241 168.352ZM146.021 167.825H148.129V168.643H146.021V167.825ZM145.391 165.005H146.299V171.496H145.391V165.005Z" fill="white"/>
<path d="M152.037 169.873L152.287 169.132H155.946L156.215 169.873H152.037ZM150.783 171.496L153.726 165.005H154.644L157.597 171.496H156.625L153.995 165.525H154.369L151.74 171.496H150.783Z" fill="white"/>
</g>
<defs>
<clipPath id="clip0_436_1203">
<rect width="158" height="173" fill="white"/>
</clipPath>
</defs>
</svg>
